<?xml version="1.0" encoding="UTF-8"?>
<svg version="1.1" xmlns="http://www.w3.org/2000/svg" width="3000" height="3000">
<path d="M0 0 C1.0248349 0.25073273 1.0248349 0.25073273 2.07037354 0.50653076 C49.29634032 12.06189783 95.26612197 29.29808445 138.9375 50.5625 C139.74554077 50.95565399 140.55358154 51.34880798 141.3861084 51.75387573 C157.97313975 59.84453907 174.40334451 68.2149045 190.25 77.6875 C191.09010117 78.18750015 191.09010117 78.18750015 191.94717407 78.69760132 C203.85410074 85.79101408 215.48875924 93.28231306 227 101 C227.73750488 101.49306641 228.47500977 101.98613281 229.23486328 102.49414062 C256.91940393 121.06739567 283.53102555 141.74539502 308.07421875 164.3203125 C309.89992258 166.0544992 309.89992258 166.0544992 312 167 C312 167.66 312 168.32 312 169 C312.55558594 169.226875 313.11117188 169.45375 313.68359375 169.6875 C316.66531043 171.37697184 318.6870917 173.53502125 321.0625 176 C323.65493955 178.68210288 325.89183762 180.92789175 329 183 C329 183.66 329 184.32 329 185 C329.66 185 330.32 185 331 185 C331 185.66 331 186.32 331 187 C331.54140625 187.2165625 332.0828125 187.433125 332.640625 187.65625 C335.81645344 189.46499997 338.20728081 191.91723799 340.75 194.5 C341.25660156 194.99886719 341.76320313 195.49773437 342.28515625 196.01171875 C346 199.74658861 346 199.74658861 346 202 C346.99 202.33 347.98 202.66 349 203 C350.68359375 204.70703125 350.68359375 204.70703125 352.4375 206.8125 C354.37967334 209.11265868 356.2782916 211.27115592 358.4375 213.375 C360 215 360 215 360 217 C360.66 217 361.32 217 362 217 C362.515625 217.845625 363.03125 218.69125 363.5625 219.5625 C364.366875 220.366875 365.17125 221.17125 366 222 C371.82319579 221.68866082 377.43930928 220.57754226 383.15039062 219.43896484 C467.12543614 202.80215456 553.90945831 202.68052756 834.11730957 276.11401367 C835.92762918 276.96594259 837.74061791 277.81219269 839.55371094 278.65820312 C853.6764689 285.25181937 867.47457695 292.25421868 881 300 C881.95261719 300.54414551 882.90523437 301.08829102 883.88671875 301.64892578 C921.93217886 323.44631666 958.77220278 347.87848215 992.06640625 376.5 C994.79611025 378.82624575 997.57308751 381.07426153 1000.375 383.3125 C1005.64826087 387.597507 1010.59381939 392.19304013 1015.52294922 396.86450195 C1018.53857344 399.72031199 1021.5800778 402.51846007 1024.73144531 405.22436523 C1028.981795 408.93393021 1032.99060692 412.84594861 1036.97265625 416.83984375 C1038.0627726 417.92852501 1038.0627726 417.92852501 1039.1749115 419.03919983 C1040.69962296 420.56323556 1042.2230915 422.08851569 1043.74536133 423.61499023 C1046.05633891 425.93132463 1048.37260771 428.24227078 1050.68945312 430.55273438 C1052.1800082 432.04395034 1053.670253 433.53547653 1055.16015625 435.02734375 C1055.84263931 435.70780258 1056.52512238 436.38826141 1057.22828674 437.08934021 C1061.14029542 441.02019382 1064.87645741 445.05366469 1068.49488831 449.2567749 C1070.56830251 451.65820975 1072.72227086 453.98218883 1074.875 456.3125 C1079.79624205 461.71476571 1084.4139906 467.31305671 1089 473 C1089.97407866 474.18326549 1090.94941 475.36550053 1091.92578125 476.546875 C1121.99100249 513.03198209 1147.99817467 552.73867209 1171 594 C1171.4945166 594.88075195 1171.9890332 595.76150391 1172.49853516 596.66894531 C1214.62767095 671.83868423 1241.97145797 756.82487284 1259 885 C1259.06058594 885.66874146 1259.12117188 886.33748291 1259.18359375 887.02648926 C1262.70878234 926.70199727 1262.50343099 967.33120215 1259 1007 C1258.9391925 1007.70485535 1258.87838501 1008.40971069 1258.81573486 1009.13592529 C1254.5337658 1058.46580245 1244.95644129 1106.83559952 1230.9855957 1154.31054688 C1230.73577942 1155.16008438 1230.48596313 1156.00962189 1230.22857666 1156.88490295 C1229.76454216 1158.45689654 1229.29742171 1160.0279845 1228.82635498 1161.59788513 C1227.72005842 1165.32780167 1226.67494098 1169.07354138 1225.72509766 1172.84643555 C1225.54008698 1173.56743942 1225.35507629 1174.2884433 1225.16445923 1175.03129578 C1224.77838168 1177.32447938 1224.77838168 1177.32447938 1226.89453125 1180.1171875 C1227.84170738 1181.06269077 1228.81639186 1181.98119486 1229.8125 1182.875 C1230.85534291 1183.90635424 1231.89567249 1184.94025542 1232.93359375 1185.9765625 C1233.71839111 1186.73888184 1233.71839111 1186.73888184 1234.51904297 1187.51660156 C1236.63413956 1189.63518496 1238.50118946 1191.91736856 1240.375 1194.25 C1241.45974609 1195.59771484 1241.45974609 1195.59771484 1242.56640625 1196.97265625 C1243.36949219 1197.97167969 1244.17257813 1198.97070312 1245 1200 C1246.00785316 1201.22890019 1247.01705155 1202.45669793 1248.02734375 1203.68359375 C1255.08048237 1212.26586812 1261.90017877 1220.98698901 1268.48193359 1229.93603516 C1269.50028716 1231.32058984 1270.52148469 1232.70305693 1271.54541016 1234.08349609 C1280.24992166 1245.82957157 1288.33770338 1257.92686541 1296.22607422 1270.23388672 C1297.863438 1272.7870565 1299.51082437 1275.33346006 1301.16015625 1277.87890625 C1314.49107598 1298.57313731 1326.02598261 1320.26623793 1337.10546875 1342.2277832 C1337.96386049 1343.92840156 1338.82560717 1345.62732524 1339.6875 1347.32617188 C1380.41091717 1428.03880999 1404.53608133 1519.03736186 1412 1609 C1412.10151367 1610.13276367 1412.20302734 1611.26552734 1412.30761719 1612.43261719 C1415.7406483 1651.90706016 1415.71514372 1692.54895522 1412 1732 C1411.87471263 1733.39969937 1411.7498926 1734.79944062 1411.62548828 1736.19921875 C1403.94090071 1821.45818303 1381.72910606 1904.91825244 1314 2043 C1313.45456543 2043.94101563 1312.90913086 2044.88203125 1312.34716797 2045.8515625 C1305.59006478 2057.49750025 1298.62361636 2068.96844582 1291.19189453 2080.19677734 C1290.11890082 2081.8201144 1289.05680627 2083.45064299 1287.99609375 2085.08203125 C1281.97325165 2094.27346668 1275.49770532 2103.14123214 1269 2112 C1268.48888672 2112.69706055 1267.97777344 2113.39412109 1267.45117188 2114.11230469 C1260.39252342 2123.70636077 1253.03552477 2133.0205254 1245.46484375 2142.21484375 C1244.14481281 2143.82352146 1242.8372442 2145.44240593 1241.53125 2147.0625 C1236.87250165 2152.83672331 1232.01811772 2158.35396906 1226.96875 2163.78515625 C1224.97328212 2165.83679121 1224.97328212 2165.83679121 1224 2168 C1223.34 2168 1222.68 2168 1222 2168 C1221.7421875 2168.57234375 1221.484375 2169.1446875 1221.21875 2169.734375 C1219.88634058 2172.21128995 1218.34943882 2174.1341166 1216.5 2176.25 C1215.8915625 2176.95640625 1215.283125 2177.6628125 1214.65625 2178.390625 C1213 2180 1213 2180 1211 2180 C1210.78988281 2180.53463867 1210.57976563 2181.06927734 1210.36328125 2181.62011719 C1208.47038985 2184.9245415 1205.86934474 2187.41594503 1203.1875 2190.078125 C1202.61797607 2190.64956238 1202.04845215 2191.22099976 1201.46166992 2191.80975342 C1200.2604332 2193.01234789 1199.05668003 2194.21243334 1197.85058594 2195.41015625 C1195.99959045 2197.25040717 1194.15954554 2199.10112633 1192.3203125 2200.953125 C1191.15168276 2202.12043384 1189.98243316 2203.28712251 1188.8125 2204.453125 C1187.98431763 2205.28738007 1187.98431763 2205.28738007 1187.1394043 2206.13848877 C1183.22993635 2210 1183.22993635 2210 1181 2210 C1180.505 2211.485 1180.505 2211.485 1180 2213 C1178.57421875 2214.4375 1178.57421875 2214.4375 1176.6875 2216 C1173.62804738 2218.58960811 1170.64173782 2221.2337935 1167.70605469 2223.96337891 C1161.67182406 2229.57269105 1155.42485732 2234.83965874 1149 2240 C1147.24885082 2241.43609985 1145.49886817 2242.87362323 1143.75 2244.3125 C1141.83418469 2245.87604375 1139.91745364 2247.43846586 1138 2249 C1137.18088135 2249.67071533 1137.18088135 2249.67071533 1136.34521484 2250.35498047 C1126.90440652 2258.07349707 1117.19816578 2265.3388195 1107.25537109 2272.39746094 C1105.05753667 2273.9591177 1102.86618292 2275.52950389 1100.67578125 2277.1015625 C1086.89006493 2286.9595845 1072.71781645 2296.13060066 1058.12158203 2304.73974609 C1055.7792155 2306.13114955 1053.45017601 2307.54350991 1051.12109375 2308.95703125 C1036.74478636 2317.63477824 1022.0100295 2325.47739457 1007 2333 C1005.8248584 2333.58958496 1004.6497168 2334.17916992 1003.43896484 2334.78662109 C986.22825226 2343.38904156 968.77482947 2351.20482297 950.86602783 2358.26428223 C949.61886611 2358.756 948.37224461 2359.24909013 947.12615967 2359.74353027 C913.17663593 2373.2133818 878.40066208 2383.26941904 842.9375 2391.91796875 C841.73380768 2392.21394455 841.73380768 2392.21394455 840.50579834 2392.51589966 C836.01540955 2393.59635647 831.58310451 2394.4236883 827 2395 C826.84217041 2395.62946533 826.68434082 2396.25893066 826.52172852 2396.9074707 C824.45297834 2404.84376637 821.7853254 2412.50178772 818.9375 2420.1875 C818.69767395 2420.83829529 818.4578479 2421.48909058 818.21075439 2422.15960693 C813.49940688 2434.92577619 808.42055338 2447.5173305 803 2460 C802.64260742 2460.82516113 802.28521484 2461.65032227 801.91699219 2462.50048828 C791.91667343 2485.45470831 781.0148689 2507.91936023 768.41064453 2529.55761719 C766.78686197 2532.36902611 765.22115806 2535.20896775 763.66088867 2538.0559082 C744.66579488 2572.55866282 721.51305077 2605.45980912 695.91113281 2635.38818359 C693.21917625 2638.53779204 690.6118537 2641.73429898 688.0625 2645 C683.48897435 2650.77313893 678.44812604 2656.09242777 673.42236328 2661.46875 C671.42186635 2663.62239174 669.45964014 2665.80918634 667.5 2668 C642.93153527 2695.34232365 642.93153527 2695.34232365 629.6875 2706.53125 C627.87059567 2708.11262969 626.1878872 2709.78197196 624.5 2711.5 C620.83717092 2715.21199457 616.95893845 2718.60846641 613 2722 C612.00226562 2722.86367187 611.00453125 2723.72734375 609.9765625 2724.6171875 C596.33274955 2736.40692834 582.47587512 2747.83598674 567.96191406 2758.54101562 C566.02098985 2759.98439083 564.09817266 2761.44884027 562.1796875 2762.921875 C539.48856951 2780.29458215 514.99919484 2795.21808211 490.35107422 2809.62109375 C488.39536085 2810.76812066 486.44694935 2811.92546088 484.50390625 2813.09375 C478.02245551 2816.96327283 471.37089478 2820.40492834 464.59765625 2823.7265625 C461.33453382 2825.32857548 458.09853799 2826.97574612 454.87109375 2828.6484375 C428.81767538 2842.06586775 401.67447902 2853.38419741 374 2863 C372.98743134 2863.3522464 372.98743134 2863.3522464 371.95440674 2863.71160889 C320.12366253 2881.70911189 267.41556468 2894.07745608 213 2901 C211.77555176 2901.15742676 210.55110352 2901.31485352 209.28955078 2901.47705078 C159.80772802 2907.70351933 108.66026333 2908.35377651 59 2904 C58.26769165 2903.93683594 57.5353833 2903.87367188 56.78088379 2903.80859375 C7.49880945 2899.52433735 -40.52039336 2890.07210676 -88.07531738 2876.54693604 C-89.82114645 2876.05082472 -91.56821972 2875.55909699 -93.31542969 2875.06787109 C-152.77633229 2858.23468391 -210.41340046 2831.26087709 -263 2799 C-263.89428711 2798.45214844 -264.78857422 2797.90429688 -265.70996094 2797.33984375 C-303.68019905 2773.96903773 -339.49565677 2746.88409155 -372.203125 2716.578125 C-374.77525431 2714.20716782 -377.38093376 2711.88129113 -380 2709.5625 C-384.46882752 2705.56369479 -388.70302564 2701.36196601 -392.890625 2697.07250977 C-394.95709594 2694.96938689 -396.97152986 2693.02090333 -399.3515625 2691.2734375 C-399.89554688 2690.85320313 -400.43953125 2690.43296875 -401 2690 C-401 2689.34 -401 2688.68 -401 2688 C-401.66 2688 -402.32 2688 -403 2688 C-404.4453125 2686.53125 -404.4453125 2686.53125 -406.125 2684.5 C-408.64257902 2681.53322639 -411.22168976 2678.72425751 -414 2676 C-417.35995452 2672.6923405 -420.48813887 2669.24407974 -423.5546875 2665.6640625 C-424.65402798 2664.39833536 -425.8145434 2663.1854566 -427 2662 C-434.430169 2662.4022703 -441.70936513 2664.01920209 -449.00680542 2665.41122437 C-477.13843278 2670.74054431 -505.46895678 2673.81656556 -534 2676 C-535.18762939 2676.09788818 -536.37525879 2676.19577637 -537.59887695 2676.29663086 C-550.82075032 2677.27515598 -564.06085864 2677.19915796 -577.3125 2677.1875 C-579.21074524 2677.18659363 -579.21074524 2677.18659363 -581.14733887 2677.18566895 C-601.49657328 2677.15933396 -621.7259753 2676.79128407 -642 2675 C-642.72052551 2674.93683594 -643.44105103 2674.87367188 -644.18341064 2674.80859375 C-725.12232592 2667.61930974 -805.14821279 2648.05357115 -882.85351562 2613.41015625 C-885.66084885 2612.15199698 -888.47551661 2610.91379808 -891.296875 2609.6875 C-901.03465573 2605.44600756 -910.58061661 2600.90801477 -920 2596 C-920.91716797 2595.52353027 -921.83433594 2595.04706055 -922.77929688 2594.55615234 C-946.25410024 2582.29835454 -968.98360524 2568.72136319 -991 2554 C-991.75539063 2553.49549316 -992.51078125 2552.99098633 -993.2890625 2552.47119141 C-1003.82263232 2545.40949649 -1014.12015311 2538.09262103 -1024.19042969 2530.38476562 C-1025.89640018 2529.0792793 -1027.60759301 2527.78098688 -1029.3203125 2526.484375 C-1037.41508481 2520.31882361 -1045.31270574 2513.92630026 -1053.18408203 2507.47949219 C-1054.75844883 2506.19680023 -1056.34496236 2504.92904462 -1057.93359375 2503.6640625 C-1064.26230892 2498.60485186 -1070.18482316 2493.19010107 -1076.05102539 2487.60766602 C-1076.97129517 2486.73452759 -1076.97129517 2486.73452759 -1077.91015625 2485.84375 C-1078.73205444 2485.05774414 -1078.73205444 2485.05774414 -1079.57055664 2484.25585938 C-1080.99632699 2482.89584824 -1080.99632699 2482.89584824 -1083 2482 C-1083 2481.34 -1083 2480.68 -1083 2480 C-1083.58476608 2479.74022369 -1084.16953217 2479.48044739 -1084.77201843 2479.21279907 C-1087.1580804 2477.91394913 -1088.73216897 2476.51522921 -1090.64770508 2474.59521484 C-1091.34555618 2473.90044037 -1092.04340729 2473.20566589 -1092.7624054 2472.48983765 C-1093.87968269 2471.36178207 -1093.87968269 2471.36178207 -1095.01953125 2470.2109375 C-1095.79632736 2469.43368317 -1096.57312347 2468.65642883 -1097.37345886 2467.85562134 C-1099.01737633 2466.20868327 -1100.65886313 2464.55931595 -1102.2980957 2462.90771484 C-1104.78747093 2460.40021134 -1107.28462575 2457.9006744 -1109.78320312 2455.40234375 C-1111.38328261 2453.79734353 -1112.98290648 2452.19188894 -1114.58203125 2450.5859375 C-1115.32081009 2449.84604584 -1116.05958893 2449.10615417 -1116.820755 2448.34384155 C-1121.40707052 2443.71615787 -1125.75065088 2438.93717061 -1130 2434 C-1131.45445517 2432.39231627 -1132.91220895 2430.78760285 -1134.375 2429.1875 C-1138.25667774 2424.88688908 -1141.93509634 2420.45569676 -1145.57421875 2415.94921875 C-1147.2601037 2413.89955187 -1148.9573139 2411.88741919 -1150.70703125 2409.89453125 C-1158.72543973 2400.75458128 -1166.03518042 2391.16976557 -1173.24414062 2381.38183594 C-1174.83763181 2379.22025362 -1176.44022192 2377.06586812 -1178.046875 2374.9140625 C-1183.8723064 2367.08452916 -1189.40516635 2359.0965669 -1194.74072266 2350.92578125 C-1196.00130052 2348.99801114 -1197.27169734 2347.07698055 -1198.54296875 2345.15625 C-1249.57125067 2267.6328803 -1285.74713001 2182.36600717 -1307.43478394 1791.2098999 C-1301.96952534 1765.14893478 -1295.96741218 1738.5148519 -1286.61254883 1713.54199219 C-1285.91122301 1710.63158787 -1286.1515434 1708.8498735 -1287 1706 C-1288.18448758 1704.19078218 -1288.18448758 1704.19078218 -1289.8125 1702.5625 C-1290.44542969 1701.87285156 -1291.07835937 1701.18320313 -1291.73046875 1700.47265625 C-1292.85388672 1699.24869141 -1292.85388672 1699.24869141 -1294 1698 C-1307.82272487 1682.28075351 -1320.76466539 1665.98220121 -1333 1649 C-1333.5141748 1648.28730957 -1334.02834961 1647.57461914 -1334.55810547 1646.84033203 C-1383.86266977 1578.28243966 -1421.78131926 1502.16258294 -1473 1154 C-1472.93683594 1153.25397522 -1472.87367187 1152.50795044 -1472.80859375 1151.73931885 C-1465.70916135 1069.24104325 -1444.92679218 988.91820144 -1406 901 C-1405.49388184 899.91686523 -1404.98776367 898.83373047 -1404.46630859 897.71777344 C-1397.13047121 882.06998492 -1389.33753312 866.83016553 -1380.65185547 851.87744141 C-1378.92349927 848.86673994 -1377.23988242 845.83449399 -1375.56640625 842.79296875 C-1359.87035055 814.28120972 -1341.97437319 786.69780103 -1321.71875 761.1796875 C-1319.97198863 758.96447649 -1318.27067243 756.71732382 -1316.56884766 754.4675293 C-1312.0365743 748.49701219 -1307.30022674 742.74989507 -1302.38745117 737.08886719 C-1299.39131434 733.63536717 -1296.47853257 730.13603337 -1293.625 726.5625 C-1289.36432123 721.30662619 -1284.78684621 716.38493497 -1280.13525391 711.47680664 C-1277.29961932 708.48246419 -1274.52559763 705.46469903 -1271.84765625 702.328125 C-1267.22645419 697.01026901 -1262.21867503 692.06921079 -1257.23022461 687.09985352 C-1255.56573723 685.4407268 -1253.90666553 683.77631949 -1252.24804688 682.11132812 C-1247.17165203 677.03208888 -1242.08879859 672.02792659 -1236.60131836 667.38696289 C-1234.95098884 666.00437941 -1234.95098884 666.00437941 -1233.41235352 664.31811523 C-1232 663 -1232 663 -1230 663 C-1230 662.34 -1230 661.68 -1230 661 C-1228.7421875 659.6953125 -1228.7421875 659.6953125 -1226.875 658.125 C-1226.1428125 657.50367188 -1225.410625 656.88234375 -1224.65625 656.2421875 C-1223.7796875 655.50226562 -1222.903125 654.76234375 -1222 654 C-1220.94664332 653.08740518 -1219.89464033 652.17324634 -1218.84375 651.2578125 C-1211.37746032 644.77060299 -1203.74927507 638.54723686 -1195.92626953 632.49658203 C-1193.8476239 630.88161401 -1191.7807301 629.25234745 -1189.71484375 627.62109375 C-1174.97125799 616.0103796 -1159.6983963 605.27524233 -1144 595 C-1143.30874023 594.54737793 -1142.61748047 594.09475586 -1141.90527344 593.62841797 C-1139.73064964 592.20730377 -1137.55348884 590.79018138 -1135.375 589.375 C-1134.40916992 588.74646118 -1134.40916992 588.74646118 -1133.42382812 588.10522461 C-1122.56432035 581.08301305 -1111.48883268 574.45698829 -1100.25 568.0625 C-1099.63761475 567.71383881 -1099.02522949 567.36517761 -1098.39428711 567.00595093 C-1041.07808009 534.40517246 -955.42032442 489 -887 489 C-886.90638184 488.42677002 -886.81276367 487.85354004 -886.71630859 487.26293945 C-885.40164955 479.95404393 -883.15731082 473.15714472 -880.625 466.1875 C-879.96624878 464.36412109 -879.96624878 464.36412109 -879.29418945 462.50390625 C-864.85434198 422.86747955 -846.92349048 383.74109942 -825.42382812 347.41210938 C-824.05350972 345.0906509 -822.70480121 342.75782364 -821.359375 340.421875 C-801.3099541 305.96318205 -777.68032011 273.50682005 -752.21484375 242.8828125 C-750.18236529 240.43806051 -748.17234254 237.97887958 -746.19140625 235.4921875 C-745.38574219 234.48414063 -744.58007812 233.47609375 -743.75 232.4375 C-743.06421875 231.56996094 -742.3784375 230.70242188 -741.671875 229.80859375 C-741.12015625 229.21175781 -740.5684375 228.61492187 -740 228 C-739.34 228 -738.68 228 -738 228 C-737.7328418 227.41065674 -737.46568359 226.82131348 -737.19042969 226.21411133 C-735.98172891 223.96601712 -734.71109417 222.41408253 -732.953125 220.57421875 C-732.0559375 219.62579102 -732.0559375 219.62579102 -731.140625 218.65820312 C-730.20476562 217.68270508 -730.20476562 217.68270508 -729.25 216.6875 C-728.02461086 215.40110102 -726.80064215 214.11334741 -725.578125 212.82421875 C-724.98064453 212.19563965 -724.38316406 211.56706055 -723.76757812 210.91943359 C-721.49287939 208.44931185 -719.36120418 205.87383924 -717.25292969 203.26098633 C-716.83946289 202.84486084 -716.42599609 202.42873535 -716 202 C-715.34 202 -714.68 202 -714 202 C-714 201.34 -714 200.68 -714 200 C-713.34 200 -712.68 200 -712 200 C-711.773125 199.443125 -711.54625 198.88625 -711.3125 198.3125 C-709.62449964 195.33840412 -707.53323483 193.27991135 -705 191 C-704.34 191 -703.68 191 -703 191 C-702.74605469 190.40832031 -702.49210938 189.81664062 -702.23046875 189.20703125 C-700.86446788 186.7569027 -699.47063789 185.4640418 -697.3125 183.6875 C-694.58814836 181.38530014 -691.99338129 179.0507004 -689.5 176.5 C-686.53264677 173.48586418 -683.42654708 170.70082667 -680.22265625 167.94140625 C-677.67023117 165.71195939 -675.18112486 163.41998618 -672.6875 161.125 C-667.28523429 156.20375795 -661.68694329 151.5860094 -656 147 C-654.81673451 146.02592134 -653.63449947 145.05059 -652.453125 144.07421875 C-623.18885926 119.95926627 -591.82297006 97.98890969 -559 79 C-558.11022461 78.48373047 -557.22044922 77.96746094 -556.30371094 77.43554688 C-480.14875083 33.40637078 -397.18723625 3.28260243 0 0 Z M-403 216 C-404.60252709 216.67918229 -406.2053471 217.35767429 -407.80859375 218.03515625 C-437.85164166 230.82786247 -466.07751686 247.61391395 -493 266 C-493.85078125 266.5775 -494.7015625 267.155 -495.578125 267.75 C-524.9531825 287.98182768 -551.34861622 311.29139075 -576.5625 336.4375 C-577.12739136 336.99971252 -577.69228271 337.56192505 -578.27429199 338.14117432 C-584.40174837 344.24656382 -590.4094877 350.39184918 -596 357 C-596.94882242 358.08352088 -597.89929398 359.16560028 -598.8515625 360.24609375 C-606.65365899 369.19080907 -613.89047435 378.49949751 -621 388 C-621.58072266 388.77037598 -622.16144531 389.54075195 -622.75976562 390.33447266 C-635.1107143 406.73153813 -646.07765855 423.7620725 -656.49267578 441.44384766 C-657.48143504 443.12060656 -658.47446031 444.79485871 -659.47216797 446.46630859 C-672.10541427 467.65960284 -682.97877852 490.03306445 -692 513 C-692.34305176 513.86737793 -692.68610352 514.73475586 -693.03955078 515.62841797 C-721.91002429 589.1439536 -732.16966971 663.92970832 -732.14044189 742.61720276 C-732.14249185 745.46914519 -732.14601218 748.32108544 -732.1494453 751.1730265 C-732.15691817 758.11087543 -732.15921276 765.04871665 -732.15977435 771.98656919 C-732.1606986 780.31475492 -732.1673962 788.64293378 -732.17412117 796.97111649 C-732.19006254 817.06440445 -732.19606745 837.15769154 -732.20086992 857.25098468 C-732.20321432 866.7611748 -732.20681748 876.27136433 -732.2105653 885.78155398 C-732.22338014 918.36595543 -732.23410901 950.95035656 -732.2375679 983.53476048 C-732.23778953 985.57361895 -732.23801131 987.61247742 -732.23823325 989.65133589 C-732.23845389 991.6948652 -732.23867437 993.73839452 -732.2388947 995.78192383 C-732.23933724 999.88106446 -732.23978436 1003.98020508 -732.24023438 1008.0793457 C-732.24034377 1009.09566741 -732.24045316 1010.11198911 -732.24056586 1011.15910844 C-732.24420553 1044.19591942 -732.26017031 1077.23270858 -732.28342474 1110.2695112 C-732.30799808 1145.24402878 -732.32173921 1180.21853387 -732.32293582 1215.19306034 C-732.32310727 1219.02767782 -732.32332269 1222.86229529 -732.32357025 1226.69691277 C-732.32362602 1227.64102187 -732.32368179 1228.58513097 -732.32373925 1229.55784944 C-732.32489069 1244.76171423 -732.33591872 1259.96555656 -732.35045731 1275.16941376 C-732.36479255 1290.42307245 -732.3680758 1305.67670224 -732.36001733 1320.93036581 C-732.35554993 1329.99660762 -732.35946636 1339.06275638 -732.37525584 1348.12898603 C-732.38496795 1354.17760527 -732.38386394 1360.22615894 -732.37381961 1366.27477751 C-732.36840094 1369.72489551 -732.36780249 1373.1748341 -732.38032833 1376.6249376 C-732.39130104 1380.3351383 -732.38401855 1384.04485751 -732.3719368 1387.75504398 C-732.37953199 1388.83391446 -732.38712718 1389.91278494 -732.39495254 1391.02434847 C-732.40641608 1398.02637301 -732.40641608 1398.02637301 -729 1404 C-726.68110492 1405.78463678 -726.68110492 1405.78463678 -723.93359375 1407.2421875 C-722.90411621 1407.82556885 -721.87463867 1408.4089502 -720.81396484 1409.01000977 C-719.14261475 1409.93317993 -719.14261475 1409.93317993 -717.4375 1410.875 C-716.26699461 1411.5337506 -715.09724737 1412.19384996 -713.92822266 1412.85522461 C-711.49820315 1414.22858724 -709.06502586 1415.59608889 -706.62939453 1416.95947266 C-701.01468325 1420.10836825 -695.44691623 1423.33869722 -689.875 1426.5625 C-688.79774658 1427.18374756 -687.72049316 1427.80499512 -686.6105957 1428.44506836 C-679.4340779 1432.58435147 -672.27603814 1436.75439189 -665.125 1440.9375 C-656.48717999 1445.98838019 -647.8168036 1450.98024353 -639.125 1455.9375 C-621.74198083 1465.85201358 -604.39943013 1475.83474919 -587.125 1485.9375 C-578.48712679 1490.98829017 -569.81680449 1495.98024303 -561.125 1500.9375 C-507.08842804 1531.75759639 -507.08842804 1531.75759639 -486.19848633 1544.51318359 C-483.76639289 1546.25709451 -483.76639289 1546.25709451 -481 1547 C-480.99959982 1546.2821082 -480.99919963 1545.5642164 -480.99878732 1544.8245703 C-480.95510929 1466.66001318 -480.90772914 1388.49545862 -480.84101868 1310.33091736 C-480.84002311 1309.16318217 -480.83902754 1307.99544698 -480.83800181 1306.79232587 C-480.81634288 1281.4138254 -480.79402016 1256.03532555 -480.77101372 1230.65682626 C-480.75973528 1218.21107764 -480.74860351 1205.7653289 -480.73754883 1193.31958008 C-480.73644626 1192.08108355 -480.7353437 1190.84258702 -480.73420772 1189.56656029 C-480.69854409 1149.42888782 -480.67256424 1109.29121619 -480.65161031 1069.15353358 C-480.63002488 1027.9042076 -480.59866162 986.65490032 -480.55500887 945.40559151 C-480.54884669 939.57838737 -480.54279621 933.75118313 -480.53681374 927.92397881 C-480.53563285 926.7771101 -480.53445197 925.63024139 -480.53323531 924.44861908 C-480.51451943 905.99292894 -480.50610001 887.53724779 -480.50153876 869.08154931 C-480.49673229 850.52388087 -480.48105995 831.96624674 -480.45433434 813.4085967 C-480.43878862 802.3854334 -480.43153608 791.36233775 -480.43623071 780.33916409 C-480.43854729 772.96971942 -480.42997637 765.60033856 -480.41267589 758.23091399 C-480.40313531 754.03573716 -480.39821144 749.84070134 -480.40660437 745.64551879 C-480.4631776 714.33206075 -478.05647093 685.16260038 -455.39453125 661.40234375 C-454.60433594 660.60957031 -453.81414062 659.81679688 -453 659 C-451.76443359 657.73349609 -451.76443359 657.73349609 -450.50390625 656.44140625 C-440.41312974 646.60250559 -427.9745735 640.30297414 -415.75488281 633.53857422 C-412.03064232 631.45862353 -408.35440672 629.30399231 -404.6875 627.125 C-394.30956225 620.97717242 -383.84784862 614.97485646 -373.39501953 608.95556641 C-367.9283002 605.80667946 -362.46425113 602.65316736 -357 599.5 C-354.83334689 598.2499765 -352.66668021 596.99997653 -350.5 595.75 C-349.4275 595.13125 -348.355 594.5125 -347.25 593.875 C-337.5 588.25 -337.5 588.25 -334.24951172 586.37475586 C-332.08442929 585.12564482 -329.91939018 583.87645871 -327.75439453 582.62719727 C-322.31384294 579.48797691 -316.87252784 576.35009437 -311.4296875 573.21484375 C-300.97793801 567.19252671 -290.53700452 561.15330663 -280.125 555.0625 C-270.85436069 549.64041301 -261.54063301 544.29675988 -252.20953369 538.97976685 C-244.11292157 534.36515971 -236.04211199 529.70915114 -228 525 C-218.77666734 519.59917152 -209.50950056 514.27876191 -200.2230835 508.98754883 C-190.81296146 503.62442484 -181.44250071 498.19606356 -172.09375 492.7265625 C-166.00960687 489.16791275 -159.90487254 485.65137603 -153.77734375 482.16796875 C-148.68222955 479.2566775 -143.62686117 476.27681859 -138.5625 473.3125 C-129.51725568 468.02151075 -120.42385943 462.82413424 -111.29296875 457.68261719 C-99.27540218 450.91140255 -87.36196956 443.96414419 -75.45019531 437.0090332 C-58.1396641 426.90187134 -40.79027625 416.86321041 -23.375 406.9375 C-14.98072465 402.1523459 -6.62960465 397.29586873 1.71191406 392.41943359 C12.3482831 386.20441055 23.02105818 380.05310091 33.69580078 373.90429688 C37.02614252 371.98493338 40.35509148 370.06317647 43.68359375 368.140625 C53.79690599 362.29988475 63.91569346 356.46988726 74.0625 350.6875 C80.80866137 346.84174627 87.52125456 342.94526291 94.20629883 338.99438477 C100.69755728 335.16415783 107.22133388 331.3910464 113.75 327.625 C114.8639917 326.98232178 115.9779834 326.33964355 117.12573242 325.67749023 C122.3102299 322.69010116 127.49924187 319.7113183 132.703125 316.7578125 C143.93687336 310.38077136 155.02237346 303.80907727 166 297 C162.48493517 293.36148557 158.80933139 290.10658857 154.8125 287 C154.21300537 286.53215088 153.61351074 286.06430176 152.99584961 285.58227539 C131.59807815 269.01704964 109.0268991 254.22915572 85.45703125 240.94921875 C83.08867663 239.6138414 80.7338921 238.26575155 78.38671875 236.89453125 C16.50988764 201.00019532 -55.39336189 181.3435924 -126 173 C-126.94697754 172.88527344 -127.89395508 172.77054688 -128.86962891 172.65234375 C-213.67418757 162.65859378 -304.80220348 175.79027398 -403 216 Z M457 403 C456.28404663 403.08721313 455.56809326 403.17442627 454.83044434 403.26428223 C375.55521082 412.94599021 300.84451356 439.67978564 232.16015625 480.3671875 C226.0740631 483.97179256 219.93712182 487.48382265 213.78945923 490.98178101 C203.46807956 496.85474232 193.18347757 502.78719225 182.93310547 508.78344727 C172.40915375 514.93766742 161.84619863 521.02369996 151.28222656 527.10888672 C145.85340058 530.23680148 140.42680719 533.36858448 135 536.5 C132.83334417 537.75001879 130.6666775 539.00001878 128.5 540.25 C127.4275 540.86875 126.355 541.4875 125.25 542.125 C113.33333333 549 101.41666667 555.875 89.5 562.75 C88.42766113 563.36866943 87.35532227 563.98733887 86.25048828 564.62475586 C84.08223736 565.8756448 81.91394303 567.12645852 79.74560547 568.37719727 C74.35282085 571.48798335 68.96077907 574.60004238 63.5703125 577.71484375 C51.76370516 584.53502637 39.93973 591.3232326 28.09527588 598.07736206 C19.05670572 603.23335445 10.05722862 608.45320673 1.07763672 613.71118164 C-7.17754115 618.53773718 -15.47730356 623.28397003 -23.78598022 628.01748657 C-31.99004154 632.69252941 -40.16501468 637.41433363 -48.3125 642.1875 C-56.95104063 647.24754227 -65.64172695 652.2052825 -74.36767578 657.11279297 C-82.17609184 661.51307914 -89.91946686 666.0188134 -97.65258789 670.54980469 C-105.550386 675.17084998 -113.48712492 679.72032852 -121.4375 684.25 C-128.81816803 688.45550991 -136.19268193 692.66781751 -143.5 697 C-151.40845109 701.68856741 -159.39634167 706.23639821 -167.38406372 710.78796387 C-176.76047657 716.13228221 -186.09791639 721.53937954 -195.41235352 726.99121094 C-202.608898 731.19954802 -209.83855526 735.34638602 -217.08349609 739.47070312 C-223.6020932 743.18722159 -230.08660303 746.9596456 -236.5625 750.75 C-245.3438531 755.88863315 -254.16006127 760.96312367 -263 766 C-272.66826336 771.50888988 -282.30040649 777.07560616 -291.90209961 782.69995117 C-299.15049778 786.93887562 -306.43372422 791.11353652 -313.73028564 795.26870728 C-325.96349304 802.2285925 -325.96349304 802.2285925 -338.125 809.3125 C-339.24132813 809.96863281 -340.35765625 810.62476563 -341.5078125 811.30078125 C-344.21763956 812.92023138 -344.21763956 812.92023138 -346 816 C-346.29777516 818.27872611 -346.29777516 818.27872611 -346.24609566 820.85132885 C-346.25007775 821.85703653 -346.25405985 822.8627442 -346.25816262 823.89892787 C-346.25233693 825.0068915 -346.24651125 826.11485514 -346.24050903 827.25639343 C-346.24221788 828.43093623 -346.24392673 829.60547904 -346.24568737 830.81561404 C-346.24841768 834.08114647 -346.24214576 837.34652116 -346.23213124 840.61203492 C-346.22351113 844.13144248 -346.22641588 847.65084242 -346.22793579 851.17025757 C-346.22898556 857.26966288 -346.22269941 863.36902547 -346.21146011 869.46842003 C-346.19522045 878.28716328 -346.18999868 887.10588583 -346.18748413 895.92464242 C-346.18310461 910.23175575 -346.16978856 924.53884631 -346.15087891 938.84594727 C-346.13252674 952.74568569 -346.11836699 966.64541793 -346.10986328 980.54516602 C-346.10933783 981.40164558 -346.10881239 982.25812514 -346.10827102 983.14055862 C-346.10566098 987.43717513 -346.10313356 991.73379168 -346.10064721 996.03040826 C-346.07990672 1031.68695508 -346.04467422 1067.34347544 -346 1103 C-344.11380732 1102.06691809 -342.22878366 1101.13147286 -340.34423828 1100.19506836 C-338.76946213 1099.41407021 -338.76946213 1099.41407021 -337.16287231 1098.61729431 C-332.28590251 1096.12351817 -327.58522083 1093.35509721 -322.875 1090.5625 C-320.76597714 1089.32231764 -318.65658939 1088.08275562 -316.546875 1086.84375 C-315.46857422 1086.20953125 -314.39027344 1085.5753125 -313.27929688 1084.921875 C-307.91005301 1081.77515912 -302.51793906 1078.66837687 -297.125 1075.5625 C-296.04951904 1074.9427832 -294.97403809 1074.32306641 -293.8659668 1073.68457031 C-291.67879795 1072.42432815 -289.49154183 1071.16423743 -287.30419922 1069.90429688 C-283.97385748 1067.98493338 -280.64490852 1066.06317647 -277.31640625 1064.140625 C-267.34856684 1058.38386841 -257.3760793 1052.63634324 -247.375 1046.9375 C-238.98438586 1042.15454529 -230.63710698 1037.29995559 -222.29907227 1032.42602539 C-206.89547261 1023.42610012 -191.4366213 1014.52182718 -175.9375 1005.6875 C-169.19137616 1001.84167921 -162.47874651 997.94526354 -155.79370117 993.99438477 C-140.44259997 984.93632586 -124.95577705 976.10716007 -109.47485352 967.2734375 C-98.76959358 961.16142722 -88.10127973 954.9860433 -77.4609375 948.76171875 C-66.08201552 942.10660873 -54.67175102 935.51102258 -43.21850586 928.9848938 C-33.97405282 923.71614548 -24.76911739 918.38274456 -15.5859375 913.0078125 C-8.3950821 908.80274619 -1.17116337 904.65908606 6.06811523 900.53808594 C12.73771866 896.7355123 19.37302369 892.87631565 26 889 C34.32730517 884.12911141 42.68244672 879.31166656 51.06640625 874.5390625 C57.73657775 870.73615929 64.37243953 866.87661746 71 863 C79.44761263 858.05919892 87.92224338 853.16970954 96.42456055 848.32373047 C108.26209358 841.57513594 120.04283771 834.72990159 131.80737305 827.85498047 C140.34941971 822.86367871 148.90252324 817.89529632 157.5 813 C164.92227783 808.77376696 172.31395295 804.49818904 179.6875 800.1875 C196.791471 790.18927888 213.9560507 780.29763254 231.16870117 770.48779297 C238.82921749 766.11390649 246.4447888 761.66441683 254.05908203 757.21069336 C260.51846453 753.43639769 266.99844755 749.70113098 273.5 746 C280.92231886 741.77384118 288.3139743 737.49822272 295.6875 733.1875 C306.23402045 727.02188119 316.80748511 720.90433359 327.39453125 714.80859375 C331.87681403 712.22719878 336.35267135 709.63510094 340.82421875 707.03515625 C346.2515948 703.88124164 351.69010067 700.74765134 357.14111328 697.63476562 C358.92885722 696.61249975 360.71411797 695.58586467 362.49560547 694.55273438 C385.74674514 681.11852142 411.84965922 677.20327008 438 684 C450.26182509 687.48248963 461.06216978 693.59638991 472 700 C473.85397329 701.07715582 475.70814848 702.1539642 477.5625 703.23046875 C481.59384857 705.57523614 485.62043628 707.92796438 489.64453125 710.28515625 C504.71733633 719.10740711 519.86922853 727.79438778 535.0390625 736.44848633 C545.25675266 742.28121367 555.44201438 748.17008416 565.62988281 754.0546875 C569.03069821 756.01771974 572.43307834 757.97801298 575.8359375 759.9375 C585.73779915 765.64073786 595.63291393 771.35224169 605.47119141 777.16455078 C615.13897371 782.86582523 624.87882 788.44359764 634.60498047 794.04443359 C640.0716998 797.19332054 645.53574887 800.34683264 651 803.5 C653.16665311 804.7500235 655.33331979 806.00002347 657.5 807.25 C677 818.5 677 818.5 696.5 829.75 C697.57266113 830.36883057 698.64532227 830.98766113 699.75048828 831.62524414 C701.91557071 832.87435518 704.08060982 834.12354129 706.24560547 835.37280273 C711.68615706 838.51202309 717.12747216 841.64990563 722.5703125 844.78515625 C733.16757206 850.89129012 743.75382837 857.01484308 754.3125 863.1875 C762.65813523 868.06606733 771.03125226 872.89301915 779.43017578 877.67919922 C785.80243252 881.31134935 792.15591522 884.97464031 798.50097656 888.65405273 C805.18287268 892.52853883 811.87167371 896.39095719 818.5625 900.25 C820.20907593 901.19987793 820.20907593 901.19987793 821.88891602 902.16894531 C827.45759178 905.38112888 833.02706731 908.59191665 838.59765625 911.80078125 C850.02822754 918.38729686 861.44056599 925.00294111 872.82739258 931.66479492 C881.04559265 936.46361158 889.31172825 941.17653422 897.58328247 945.88244629 C906.38252555 950.89240462 915.11439705 956.00379467 923.8125 961.1875 C932.98260056 966.65228243 942.21063383 971.99076463 951.52001953 977.21435547 C958.28250542 981.01364937 964.99504543 984.89127322 971.6875 988.8125 C980.38640001 993.90778341 989.1174737 998.94381527 997.875 1003.9375 C1007.09102713 1009.19498005 1016.30457012 1014.45652888 1025.5 1019.75 C1026.5626709 1020.36166016 1027.6253418 1020.97332031 1028.72021484 1021.60351562 C1036.55639367 1026.12984582 1044.32759939 1030.75800663 1052.03710938 1035.49707031 C1053.17889648 1036.19268066 1053.17889648 1036.19268066 1054.34375 1036.90234375 C1055.00568359 1037.30960693 1055.66761719 1037.71687012 1056.34960938 1038.13647461 C1057.98490645 1039.15453348 1057.98490645 1039.15453348 1060 1039 C1065.30350559 1012.33201799 1067.18949056 985.13463587 1068 958 C1068.02481445 957.18096191 1068.04962891 956.36192383 1068.07519531 955.51806641 C1070.07446858 877.49557992 1052.90763481 799.36442919 1022 728 C1021.27160845 726.28798452 1020.5436917 724.5757669 1019.81640625 722.86328125 C1015.44972914 712.69699327 1010.43117421 702.93133885 1005.17871094 693.19726562 C1004.10552911 691.19671955 1003.05179616 689.18777035 1002.0078125 687.171875 C990.49258572 665.01667394 976.74884996 644.12207787 962 624 C961.29641357 623.03731201 961.29641357 623.03731201 960.57861328 622.05517578 C954.1608884 613.30142444 947.51509145 604.83034477 940.40625 596.62841797 C938.93814196 594.92836925 937.48346819 593.21754262 936.03125 591.50390625 C935.02093564 590.31501722 934.01052139 589.12621307 933 587.9375 C932.56236328 587.4204248 932.12472656 586.90334961 931.67382812 586.37060547 C923.09972354 576.33570473 913.99638914 566.8097159 904.66601562 557.48071289 C902.99578905 555.8082835 901.33377621 554.12796331 899.671875 552.44726562 C893.83617756 546.58181152 887.92116913 541.07583672 881.41918945 535.94555664 C878.91332229 533.93029219 876.54797077 531.80787808 874.1875 529.625 C868.61626605 524.55623493 862.71929894 519.95577193 856.75830078 515.35986328 C855.09088342 514.0702889 853.43289227 512.76960158 851.77734375 511.46484375 C837.53516664 500.29048412 822.38293532 490.51793755 807 481 C806.35740234 480.60071289 805.71480469 480.20142578 805.05273438 479.79003906 C777.72582757 462.86849043 748.96832133 448.57282893 719 437 C717.82727539 436.54238281 716.65455078 436.08476562 715.44628906 435.61328125 C666.40367051 416.58778293 615.34478913 405.69918692 563 401 C561.9368457 400.90283691 560.87369141 400.80567383 559.77832031 400.70556641 C546.95769141 399.69034174 534.10313073 399.75627787 521.25 399.75 C520.00634674 399.74932526 518.76269348 399.74865051 517.48135376 399.74795532 C497.15464537 399.76542023 477.17062177 400.48898049 457 403 Z M-967.27880859 716.72753906 C-969.67325583 717.8472106 -972.07627272 718.94228692 -974.48828125 720.0234375 C-1018.82358527 740.05005964 -1061.95272704 769.7338435 -1097.62890625 802.8125 C-1099.69456213 804.71821218 -1101.79732579 806.5543201 -1103.9375 808.375 C-1109.09075082 812.84682922 -1113.82873705 817.75089974 -1118.61962891 822.60302734 C-1121.869367 825.89184966 -1125.14934563 829.14841205 -1128.453125 832.3828125 C-1134.98286793 838.80214294 -1141.22853517 845.19957274 -1146.8984375 852.3984375 C-1149.13800634 855.17084056 -1151.50947705 857.76656668 -1153.9375 860.375 C-1158.82538299 865.70587085 -1163.26354856 871.30899108 -1167.58251953 877.10253906 C-1169.1169347 879.15653058 -1170.66616252 881.19893481 -1172.21484375 883.2421875 C-1189.88466463 906.71967756 -1204.75150826 931.70372962 -1218.66162109 957.53613281 C-1219.78107253 959.59696898 -1220.92120231 961.64203152 -1222.08203125 963.6796875 C-1228.8669034 975.82103767 -1234.1281018 988.7127138 -1239.52685547 1001.51269531 C-1240.73635546 1004.37588687 -1241.96115029 1007.23164936 -1243.19140625 1010.0859375 C-1267.39409542 1067.2732051 -1280.97992017 1133.11006753 -1281.203125 1195.20703125 C-1281.21013931 1196.5189444 -1281.21715363 1197.83085754 -1281.22438049 1199.18252563 C-1281.24377428 1203.39252207 -1281.24881443 1207.6024634 -1281.25 1211.8125 C-1281.25044186 1212.52979908 -1281.25088371 1213.24709816 -1281.25133896 1213.98613358 C-1281.25828025 1235.47049041 -1280.955049 1256.67734955 -1278 1278 C-1277.82065224 1279.35098983 -1277.64196331 1280.70206726 -1277.46386719 1282.05322266 C-1270.46206034 1334.62225281 -1256.1299104 1385.37393242 -1235 1434 C-1234.566875 1435.00530762 -1234.13375 1436.01061523 -1233.6875 1437.04638672 C-1227.96814127 1450.25676491 -1221.46520109 1462.90351941 -1214.41992188 1475.45263672 C-1213.11621289 1477.79151216 -1211.84090909 1480.14275214 -1210.578125 1482.50390625 C-1200.88740483 1500.52128676 -1189.81782426 1517.94560743 -1177.38037109 1534.19580078 C-1175.87498693 1536.16339699 -1174.38457093 1538.14185567 -1172.89453125 1540.12109375 C-1162.98768992 1553.23234441 -1152.88373721 1566.1646688 -1141.6328125 1578.15625 C-1139.72339769 1580.21864463 -1137.899023 1582.29425559 -1136.08203125 1584.43359375 C-1130.85315128 1590.43476087 -1125.15581646 1595.99293825 -1119.52124023 1601.60913086 C-1117.56704376 1603.5579687 -1115.61824853 1605.51209272 -1113.66992188 1607.46679688 C-1107.61704652 1613.52319955 -1101.5640019 1619.49225211 -1095 1625 C-1093.92794935 1625.93681674 -1092.85759447 1626.87557809 -1091.7890625 1627.81640625 C-1064.37065556 1651.69764912 -1034.41838794 1671.80330061 -1003 1690 C-1001.98131836 1690.59039063 -1000.96263672 1691.18078125 -999.91308594 1691.7890625 C-993.38933511 1695.56628811 -986.85776634 1699.32982809 -980.32324219 1703.08837891 C-965.53562064 1711.59462903 -950.76375604 1720.12651133 -936.03417969 1728.73291016 C-924.38340815 1735.53587623 -912.69096256 1742.26642186 -901 1749 C-888.35696951 1756.28193536 -875.71871116 1763.57051878 -863.125 1770.9375 C-853.14572047 1776.77348162 -843.11729792 1782.5207466 -833.07519531 1788.24755859 C-824.99152736 1792.85796329 -816.92754689 1797.50064974 -808.87890625 1802.171875 C-804.13985819 1804.92172965 -799.3925002 1807.65707061 -794.64501953 1810.39233398 C-784.09145 1816.47320024 -773.55618047 1822.58396943 -763.0402832 1828.72973633 C-754.61401198 1833.65064556 -746.1624227 1838.52691906 -737.70654297 1843.39672852 C-730.4974806 1847.5512582 -723.30650808 1851.73555379 -716.125 1855.9375 C-706.85441812 1861.35968383 -697.54063198 1866.70324071 -688.20953369 1872.02023315 C-680.11292118 1876.63484051 -672.04213337 1881.29088487 -664 1886 C-655.26009427 1891.11727601 -646.48520901 1896.17051595 -637.6875 1901.1875 C-628.40864877 1906.47901546 -619.14451798 1911.79415741 -609.90625 1917.15625 C-605.04026819 1919.97982138 -600.16500629 1922.78719412 -595.29003906 1925.59521484 C-587.0485296 1930.34286163 -578.80934598 1935.09184589 -570.625 1939.9375 C-563.27420799 1944.28721725 -555.85805682 1948.52086409 -548.4375 1952.75 C-538.57097961 1958.37317131 -528.73731637 1964.04813324 -518.93481445 1969.7824707 C-508.41026075 1975.93696148 -497.84676746 1982.02337229 -487.28222656 1988.10888672 C-480.77923729 1991.85569979 -474.27892422 1995.6071563 -467.77905273 1999.359375 C-462.78580405 2002.24135897 -457.7914144 2005.12127354 -452.79164124 2007.9919281 C-451.05581187 2008.98871866 -449.32050644 2009.9864214 -447.58520508 2010.98413086 C-445.35024497 2012.26902817 -443.11442811 2013.5524366 -440.87768555 2014.83422852 C-436.44205288 2017.38631599 -432.02430611 2019.93921959 -427.7265625 2022.71875 C-427.13077393 2023.10297119 -426.53498535 2023.48719238 -425.92114258 2023.88305664 C-424.47431429 2024.83143293 -423.04274517 2025.80299136 -421.61328125 2026.77734375 C-417.92809686 2028.50150326 -416.07302309 2028.62724556 -412 2028 C-407.87774011 2026.11686696 -404.05616227 2023.79053251 -400.1875 2021.4375 C-399.03546366 2020.75229225 -397.88244866 2020.06872752 -396.72851562 2019.38671875 C-394.33389154 2017.9697045 -391.94361718 2016.54574019 -389.55615234 2015.11669922 C-384.07606757 2011.84452024 -378.53503707 2008.67798149 -373 2005.5 C-370.83304843 2004.25049396 -368.66638254 2003.00049236 -366.5 2001.75 C-249.50000001 1934.25 -249.50000001 1934.25 -246.24951172 1932.37475586 C-244.08442929 1931.12564482 -241.91939018 1929.87645871 -239.75439453 1928.62719727 C-234.31384294 1925.48797691 -228.87252784 1922.35009437 -223.4296875 1919.21484375 C-211.68246458 1912.44613093 -199.95301053 1905.64857389 -188.24755859 1898.80786133 C-180.85781509 1894.49207622 -173.4446545 1890.22038512 -166 1886 C-166 1885.34 -166 1884.68 -166 1884 C-166.7120459 1883.59386475 -167.4240918 1883.18772949 -168.15771484 1882.76928711 C-189.44832063 1870.62243981 -210.71574939 1858.43724317 -231.875 1846.0625 C-240.51287321 1841.01170983 -249.18319551 1836.01975697 -257.875 1831.0625 C-275.25801917 1821.14798642 -292.60056987 1811.16525081 -309.875 1801.0625 C-318.51287321 1796.01170983 -327.18319551 1791.01975697 -335.875 1786.0625 C-354.41201882 1775.48979551 -372.89385646 1764.82445291 -391.31787109 1754.0559082 C-398.49940824 1749.86322231 -405.7088541 1745.72193602 -412.93359375 1741.60424805 C-429.33290719 1732.25497729 -445.66577674 1722.79101656 -461.96459961 1713.26782227 C-472.52536152 1707.10125075 -483.12085666 1700.99527725 -493.71777344 1694.89111328 C-500.22871257 1691.13971976 -506.73663194 1687.38309006 -513.24511719 1683.62744141 C-518.68585336 1680.48817754 -524.12731477 1677.35018503 -529.5703125 1674.21484375 C-540.02206279 1668.19252625 -550.46293115 1662.15319743 -560.875 1656.0625 C-570.68628636 1650.32544692 -580.54438068 1644.6725896 -590.41723633 1639.04248047 C-602.63729513 1632.07298051 -614.82126657 1625.04144007 -627 1618 C-628.66796023 1617.03644359 -630.33592839 1616.07290089 -632.00390625 1615.109375 C-638.5763583 1611.3102658 -645.14406683 1607.5035645 -651.6953125 1603.66796875 C-661.59195041 1597.8754632 -671.50516393 1592.12172036 -681.5 1586.5 C-690.31877376 1581.53939273 -699.07661328 1576.48277463 -707.80859375 1571.37109375 C-715.18906575 1567.05151518 -722.58914416 1562.76722394 -730 1558.5 C-738.41380251 1553.65527218 -746.80867314 1548.77994558 -755.1875 1543.875 C-763.86837646 1538.79600553 -772.60109394 1533.81763237 -781.3671875 1528.88745117 C-789.18323722 1524.48294765 -796.93426238 1519.97300991 -804.67456055 1515.43701172 C-811.77043605 1511.28458092 -818.90016944 1507.19436214 -826.04647827 1503.12954712 C-837.37285933 1496.68688377 -848.62649994 1490.13372846 -859.81054688 1483.44677734 C-866.50281974 1479.44443971 -866.50281974 1479.44443971 -873.30859375 1475.640625 C-895.6834631 1463.56767432 -911.16782519 1444.15168735 -919 1420 C-922.13247951 1409.26568736 -923.14898235 1399.20176965 -923.1386652 1388.06784058 C-923.14150742 1386.87505987 -923.14434964 1385.68227916 -923.14727798 1384.45335358 C-923.1541612 1381.14538214 -923.1566186 1377.83746123 -923.1572054 1374.52948625 C-923.15893838 1370.92969308 -923.16642595 1367.32991109 -923.17318195 1363.73012447 C-923.18422895 1357.42214832 -923.19160682 1351.11417615 -923.19658089 1344.8061924 C-923.20399377 1335.42645996 -923.21707851 1326.04674143 -923.23132664 1316.6670172 C-923.25513386 1300.8886212 -923.27433944 1285.11022273 -923.29092598 1269.33181763 C-923.30736468 1253.70834006 -923.32584646 1238.08486711 -923.34705925 1222.46139526 C-923.34837686 1221.49011609 -923.34969446 1220.51883691 -923.351052 1219.51812503 C-923.35775405 1214.58552518 -923.36449262 1209.65292538 -923.37124526 1204.72032559 C-923.41901327 1169.77921243 -923.46219688 1134.83809495 -923.50268555 1099.89697266 C-923.54203117 1065.95133144 -923.58345267 1032.0056938 -923.62768555 998.06005859 C-923.62904808 997.01377761 -923.63041061 995.96749662 -923.63181442 994.88951015 C-923.64549975 984.38236372 -923.6592273 973.87521733 -923.67298577 963.36807099 C-923.7010126 941.9636427 -923.72875768 920.55921404 -923.7563324 899.15478516 C-923.7576006 898.17063574 -923.7588688 897.18648633 -923.76017542 896.1725142 C-923.84483689 830.44834861 -923.92293019 764.72417488 -924 699 C-937.28509332 699 -955.48390435 711.17583702 -967.27880859 716.72753906 Z M351.640625 855.765625 C350.85171875 856.25546875 350.0628125 856.7453125 349.25 857.25 C348.28964844 857.82234375 347.32929687 858.3946875 346.33984375 858.984375 C344.68662109 859.98210938 344.68662109 859.98210938 343 861 C341.01484485 862.11073542 339.01899583 863.20063752 337.02246094 864.29077148 C327.0150809 869.76652859 317.17900554 875.53298589 307.3359375 881.296875 C297.67645543 886.95076819 287.97200543 892.52681397 278.2734375 898.11328125 C275.0352484 899.9796838 271.79860562 901.84873763 268.5625 903.71875 C257.94122138 909.85509454 247.30927037 915.97162963 236.65368652 922.04815674 C226.38152763 927.90612835 216.13970887 933.81289848 205.93261719 939.78369141 C195.40888681 945.93792989 184.8460408 952.02379087 174.28222656 958.10888672 C168.85340056 961.23680149 163.42682059 964.36860767 158 967.5 C155.84896371 968.74089474 153.69792203 969.98178014 151.546875 971.22265625 C147.63670629 973.47847754 143.72684735 975.73483378 139.81741333 977.9919281 C116.33215937 991.55097112 116.33215937 991.55097112 105 998 C107.4150749 1000.67813752 110.01052912 1002.3043511 113.13671875 1004.08203125 C114.69592041 1004.97426392 114.69592041 1004.97426392 116.28662109 1005.88452148 C117.97005615 1006.83887085 117.97005615 1006.83887085 119.6875 1007.8125 C121.46544112 1008.82757796 123.24237764 1009.84439976 125.01928711 1010.86128235 C126.23365311 1011.55607756 127.44833738 1012.25031679 128.66333008 1012.9440155 C134.4242737 1016.23478932 140.15104455 1019.58286102 145.875 1022.9375 C155.69086614 1028.67841035 165.55466359 1034.3332383 175.43261719 1039.96630859 C186.56868885 1046.31762137 197.67347797 1052.72250856 208.7734375 1059.13671875 C212.03524007 1061.0203505 215.29861844 1062.90122321 218.5625 1064.78125 C229.01713032 1070.80439786 239.46042007 1076.84533368 249.875 1082.9375 C259.69138458 1088.67753421 269.55465494 1094.33323337 279.43261719 1099.96630859 C290.5584312 1106.31177105 301.65297367 1112.71078179 312.74267578 1119.11914062 C316.09660563 1121.05578247 319.4523503 1122.98924573 322.80859375 1124.921875 C341.77907156 1135.84828093 341.77907156 1135.84828093 350.8125 1141.1875 C357.69682061 1145.25588767 364.63089571 1149.23278334 371.578125 1153.19262695 C387.06090577 1162.02021026 402.49086348 1170.93918312 417.875 1179.9375 C427.69141187 1185.67748816 437.55465447 1191.3332331 447.43261719 1196.96630859 C458.56868885 1203.31762137 469.67347797 1209.72250856 480.7734375 1216.13671875 C484.03524007 1218.0203505 487.29861844 1219.90122321 490.5625 1221.78125 C501.16264458 1227.88820602 511.75128262 1234.01343346 522.3125 1240.1875 C530.49383369 1244.96947226 538.7005729 1249.70340142 546.93359375 1254.39575195 C562.29815016 1263.15510633 577.60878671 1272.00794151 592.875 1280.9375 C602.14566496 1286.35954383 611.4593665 1291.70323984 620.79046631 1297.02023315 C628.88707882 1301.63484051 636.95786663 1306.29088487 645 1311 C653.73990573 1316.11727601 662.51479099 1321.17051595 671.3125 1326.1875 C680.59387405 1331.48045416 689.86029676 1336.79744744 699.1015625 1342.16015625 C705.06115973 1345.61811728 711.03101762 1349.05827359 717 1352.5 C725.25422873 1357.26013291 733.50510847 1362.02591709 741.74926758 1366.8034668 C747.28166283 1370.00834751 752.82009623 1373.20265606 758.35986328 1376.39477539 C768.94723081 1382.49629938 779.52829542 1388.6081517 790.06958008 1394.7890625 C795.18705635 1397.78821658 800.31971482 1400.75459833 805.484375 1403.671875 C806.55413574 1404.281521 807.62389648 1404.89116699 808.72607422 1405.51928711 C810.74806872 1406.67074855 812.77534285 1407.81301511 814.80908203 1408.94360352 C820.91317745 1412.43719247 825.93989075 1416.38421882 831.00830078 1421.26635742 C832.81133917 1423.21885059 832.81133917 1423.21885059 835 1423 C835 1423.66 835 1424.32 835 1425 C835.66 1425 836.32 1425 837 1425 C837.25652344 1425.57363281 837.51304687 1426.14726563 837.77734375 1426.73828125 C839.1201079 1429.22218042 840.70246334 1431.06442786 842.5625 1433.1875 C852.24663073 1445.21342962 857.87042309 1458.96913999 861 1474 C861.17100233 1474.79025074 861.34200467 1475.58050148 861.51818889 1476.39469922 C862.20283523 1481.51777738 862.14339956 1486.58533849 862.1386652 1491.74853325 C862.14150742 1492.94575976 862.14434964 1494.14298628 862.14727798 1495.37649238 C862.15417652 1498.70625652 862.15661959 1502.03597048 862.1572054 1505.36573819 C862.15893483 1508.98567845 862.16642042 1512.60560751 862.17318195 1516.22554123 C862.18424066 1522.57199239 862.1916114 1528.91843957 862.19658089 1535.2648983 C862.203987 1544.70187441 862.21707018 1554.13883664 862.23132664 1563.57580458 C862.2551461 1579.44970119 862.27434653 1595.32360026 862.29092598 1611.19750595 C862.30735976 1626.9175335 862.32583948 1642.63755644 862.34705925 1658.35757828 C862.34837686 1659.33454032 862.34969446 1660.31150236 862.351052 1661.31806931 C862.35775397 1666.27944727 862.36449256 1671.24082517 862.37124526 1676.20220305 C862.41902439 1711.35517517 862.4622048 1746.50815159 862.50268555 1781.66113281 C862.54202564 1815.8144563 862.58344579 1849.96777624 862.62768555 1884.12109375 C862.62904808 1885.17361401 862.63041061 1886.22613427 862.63181442 1887.31054909 C862.64549965 1897.88026836 862.6592272 1908.44998759 862.67298577 1919.01970677 C862.70101326 1940.55196606 862.72875823 1962.08422572 862.7563324 1983.6164856 C862.7576006 1984.60653155 862.7588688 1985.5965775 862.76017542 1986.61662484 C862.8448494 2052.74441077 862.92293711 2118.87220481 863 2185 C865.72282925 2184.04471275 868.44516485 2183.08805739 871.16723633 2182.13061523 C871.93344551 2181.86195396 872.69965469 2181.59329269 873.48908234 2181.31649017 C878.95944597 2179.39072748 884.35638134 2177.34873555 889.6875 2175.0625 C890.87436401 2174.55783203 890.87436401 2174.55783203 892.08520508 2174.04296875 C898.03102632 2171.48454036 903.82757185 2168.71251481 909.5859375 2165.75390625 C912.50503819 2164.25427672 915.44481574 2162.80893366 918.39648438 2161.375 C957.95286605 2142.02019551 995.11205271 2117.12921714 1028.42138672 2088.35205078 C1030.05048591 2086.95675983 1031.69671956 2085.58420322 1033.34765625 2084.21484375 C1042.17406321 2076.84846275 1050.29750964 2068.89980061 1058.34130859 2060.69140625 C1061.67326861 2057.29372904 1065.05311484 2053.94650756 1068.453125 2050.6171875 C1075.00404685 2044.17702173 1081.27485931 2037.75665052 1086.96484375 2030.53515625 C1089.02888979 2027.96401253 1091.2016497 2025.5474952 1093.4375 2023.125 C1098.18146992 2017.90499158 1102.44888911 2012.37963041 1106.67871094 2006.74511719 C1107.97960062 2005.02694286 1109.30296563 2003.32863636 1110.6328125 2001.6328125 C1150.12703593 1950.78452484 1178.74754724 1891.18264129 1198 1830 C1198.27650391 1829.12988281 1198.55300781 1828.25976562 1198.83789062 1827.36328125 C1214.44323213 1777.66323158 1221.2138757 1724.83768057 1221.25 1672.875 C1221.25100708 1671.85786926 1221.25201416 1670.84073853 1221.25305176 1669.79278564 C1221.23956202 1649.41970591 1220.14138099 1629.25662584 1218 1609 C1217.79914795 1607.09009277 1217.79914795 1607.09009277 1217.59423828 1605.14160156 C1213.98050672 1572.54355276 1206.66963523 1540.31081718 1197 1509 C1196.61086426 1507.73897461 1196.22172852 1506.47794922 1195.82080078 1505.17871094 C1189.91886976 1486.3051044 1182.82788732 1468.13875335 1175 1450 C1174.27065477 1448.28393005 1173.5414694 1446.56779214 1172.8125 1444.8515625 C1168.11802692 1433.92565236 1162.68188598 1423.44103542 1157 1413 C1156.58991699 1412.24187012 1156.17983398 1411.48374023 1155.75732422 1410.70263672 C1138.61581407 1379.08032721 1118.2969719 1349.61177747 1095.48681641 1321.82324219 C1094.22091709 1320.27090457 1092.97366496 1318.70339084 1091.73046875 1317.1328125 C1080.89408451 1303.49927363 1068.37831586 1291.22118632 1056 1279 C1053.52531079 1276.53285558 1051.05831784 1274.05917406 1048.60546875 1271.5703125 C1043.57420157 1266.48214892 1038.45753674 1261.62454429 1033 1257 C1032.07960938 1256.20207031 1031.15921875 1255.40414063 1030.2109375 1254.58203125 C997.63525443 1226.4729536 961.24492328 1204.21815836 924.08056641 1182.81689453 C916.60102773 1178.50780654 909.13887321 1174.17008486 901.6875 1169.8125 C893.45858533 1165.0015231 885.20076091 1160.24533865 876.91699219 1155.52954102 C870.3982001 1151.81299723 863.91355372 1148.04044614 857.4375 1144.25 C848.6561469 1139.11136685 839.83993873 1134.03687633 831 1129 C821.33031337 1123.49029915 811.69715099 1117.92209464 802.09350586 1112.29785156 C793.6751303 1107.37554414 785.20997692 1102.53788814 776.73730469 1097.70996094 C769.31616416 1093.48019148 761.9204682 1089.21355348 754.57275391 1084.85742188 C747.90246142 1080.9159592 741.16884705 1077.08582079 734.4375 1073.25 C724.57231494 1067.62779718 714.73975512 1061.9541667 704.93920898 1056.21972656 C696.55207733 1051.31432109 688.1371916 1046.45807798 679.71704102 1041.60961914 C672.39900639 1037.39265978 665.10144999 1033.14199233 657.8125 1028.875 C648.97027438 1023.70097833 640.07332484 1018.63215785 631.14501953 1013.60839844 C624.95370263 1010.11946311 618.80763164 1006.56450519 612.69262695 1002.94384766 C598.38240704 994.48083251 583.93984496 986.23934559 569.5 978 C553.18060261 968.68811252 536.90866945 959.29445233 520.6875 949.8125 C512.5061436 945.03056601 504.29942757 940.29659884 496.06640625 935.60424805 C479.66709281 926.25497729 463.33422326 916.79101656 447.03540039 907.26782227 C436.47463848 901.10125075 425.87914334 894.99527725 415.28222656 888.89111328 C410.93399144 886.38580019 406.58717821 883.87802787 402.24072266 881.36962891 C400.09241474 880.13023294 397.94365661 878.89161701 395.79443359 877.65380859 C390.72600778 874.73371205 385.66200874 871.80664591 380.61242676 868.85409546 C378.23299561 867.46340091 375.85121204 866.07676362 373.46923828 864.69042969 C371.79359101 863.71292912 370.1213556 862.72958726 368.44921875 861.74609375 C366.91974609 860.85664062 366.91974609 860.85664062 365.359375 859.94921875 C364.46702148 859.42674561 363.57466797 858.90427246 362.65527344 858.3659668 C357.34739739 855.48040498 357.34739739 855.48040498 351.640625 855.765625 Z M-39.0625 1081.0625 C-40.60600138 1081.98826327 -42.15032618 1082.91265455 -43.6953125 1083.8359375 C-44.96616699 1084.59729004 -44.96616699 1084.59729004 -46.26269531 1085.37402344 C-51.2921361 1088.36154356 -56.36696504 1091.27046532 -61.4375 1094.1875 C-63.67971534 1095.47911834 -65.92190244 1096.77078571 -68.1640625 1098.0625 C-69.29231445 1098.7121875 -70.42056641 1099.361875 -71.58300781 1100.03125 C-74.96020003 1101.97706866 -78.33585596 1103.92552291 -81.7109375 1105.875 C-91.66959183 1111.6266714 -101.63304117 1117.36885381 -111.625 1123.0625 C-120.01932313 1127.84756897 -128.37039647 1132.70413192 -136.71191406 1137.58056641 C-147.35565245 1143.7998955 -158.03571631 1149.95567917 -168.71777344 1156.10888672 C-174.14659938 1159.23680146 -179.57322007 1162.36853731 -185 1165.5 C-191.52233275 1169.26363919 -198.04513762 1173.02644622 -204.5703125 1176.78515625 C-215.02206236 1182.8074735 -225.46296702 1188.84674164 -235.875 1194.9375 C-244.65760017 1200.07365166 -253.4748685 1205.14687263 -262.3125 1210.1875 C-262.91008118 1210.52834625 -263.50766235 1210.8691925 -264.12335205 1211.22036743 C-264.71638123 1211.55861542 -265.3094104 1211.8968634 -265.92041016 1212.24536133 C-277.48686152 1218.84300388 -289.0179066 1225.49926191 -300.51171875 1232.22265625 C-311.57137847 1238.69065537 -322.65676644 1245.10823916 -333.78515625 1251.45703125 C-335.07689109 1252.19449124 -336.36859858 1252.93199916 -337.66027832 1253.66955566 C-340.77320533 1255.44692014 -343.88649626 1257.22364596 -347 1259 C-347.20590804 1305.39660609 -347.36454018 1351.79316391 -347.45958797 1398.19013668 C-347.4708446 1403.66516999 -347.48249347 1409.14020241 -347.49438477 1414.61523438 C-347.49674556 1415.7052349 -347.49910635 1416.79523543 -347.50153869 1417.91826628 C-347.54072241 1435.57766968 -347.61169545 1453.23680995 -347.69437516 1470.89605714 C-347.77847848 1489.01016848 -347.82851618 1507.12414182 -347.84679645 1525.23844039 C-347.85915829 1536.42006349 -347.89822886 1547.6009429 -347.9712482 1558.78233711 C-348.01874767 1566.44529625 -348.03321796 1574.1078698 -348.0215124 1581.77096553 C-348.01573578 1586.19540141 -348.02471431 1590.61853611 -348.07284927 1595.04274178 C-348.11658903 1599.0924739 -348.11890421 1603.14002805 -348.08809005 1607.18985961 C-348.08428108 1608.65568013 -348.09575596 1610.12163549 -348.12394864 1611.58718981 C-348.49931054 1619.47025145 -348.49931054 1619.47025145 -345.04826915 1626.15492415 C-342.7525333 1627.71481628 -340.53614817 1628.88410959 -338 1630 C-336.81433995 1630.67487679 -335.63421431 1631.35977606 -334.46484375 1632.0625 C-333.29071568 1632.71133396 -332.1148547 1633.35703953 -330.9375 1634 C-324.153175 1637.76208296 -317.44279766 1641.64009967 -310.75 1645.5625 C-301.75999569 1650.82587244 -292.73704364 1656.02750335 -283.6875 1661.1875 C-270.85855074 1668.50425372 -258.05778772 1675.86643119 -245.3125 1683.328125 C-234.30342186 1689.77058708 -223.25948376 1696.13855416 -212.14233398 1702.39282227 C-205.99470114 1705.85670085 -199.89570148 1709.39089145 -193.82666016 1712.99023438 C-187.07231848 1716.98366571 -180.25492073 1720.8656995 -173.4375 1724.75 C-163.57079638 1730.37284482 -153.73731142 1736.04813614 -143.93481445 1741.7824707 C-133.41026075 1747.93696148 -122.84676746 1754.02337229 -112.28222656 1760.10888672 C-106.85340058 1763.23680148 -101.42680719 1766.36858448 -96 1769.5 C-93.83334417 1770.75001879 -91.6666775 1772.00001878 -89.5 1773.25 C-76.5 1780.75 -76.5 1780.75 -73.24487305 1782.62915039 C-71.09667314 1783.867707 -68.94711302 1785.10390766 -66.79614258 1786.33764648 C-61.69939716 1789.2648392 -56.62024786 1792.21471421 -51.5866394 1795.24905396 C-49.20131875 1796.68501707 -46.80818207 1798.10765308 -44.41430664 1799.52929688 C-42.72217413 1800.54175337 -41.04159139 1801.57343389 -39.36132812 1802.60546875 C-38.33845703 1803.21132812 -37.31558594 1803.8171875 -36.26171875 1804.44140625 C-34.91533325 1805.25653687 -34.91533325 1805.25653687 -33.54174805 1806.08813477 C-31.02264912 1807.26449565 -31.02264912 1807.26449565 -28.46337891 1806.3190918 C-27.65046387 1805.8837915 -26.83754883 1805.44849121 -26 1805 C-25.24162842 1804.60458008 -24.48325684 1804.20916016 -23.7019043 1803.80175781 C-22.91726807 1803.35670898 -22.13263184 1802.91166016 -21.32421875 1802.453125 C-20.42662842 1801.94539551 -19.52903809 1801.43766602 -18.60424805 1800.91455078 C-17.16045776 1800.09059814 -17.16045776 1800.09059814 -15.6875 1799.25 C-14.67276611 1798.67362793 -13.65803223 1798.09725586 -12.61254883 1797.50341797 C-3.42851141 1792.27335406 5.69873931 1786.94735912 14.8203125 1781.609375 C29.03617585 1773.29520756 43.31713986 1765.09216113 57.625 1756.9375 C66.01927535 1752.1523459 74.37039535 1747.29586873 82.71191406 1742.41943359 C93.35565245 1736.2001045 104.03571631 1730.04432083 114.71777344 1723.89111328 C120.14659945 1720.7631985 125.57317249 1717.63138034 131 1714.5 C133.16015357 1713.25390161 135.32030983 1712.00780786 137.48046875 1710.76171875 C141.87959075 1708.22384007 146.27794321 1705.68463417 150.67578125 1703.14453125 C160.64647883 1697.38691778 170.62139741 1691.63778107 180.625 1685.9375 C188.00473884 1681.73078092 195.35379074 1677.47393689 202.6875 1673.1875 C217.83810096 1664.33234866 233.02757312 1655.54470922 248.26953125 1646.84765625 C248.87983185 1646.49934753 249.49013245 1646.15103882 250.118927 1645.79217529 C253.03557902 1644.12796199 255.95310998 1642.46533985 258.87207031 1640.80517578 C261.00758355 1639.58822139 263.12451226 1638.33792706 265.21912766 1637.05185509 C267.86486328 1635.50697677 270.37684661 1634.51985319 273.3068428 1633.63898659 C278.54154321 1631.80078643 282.73045225 1629.60291405 286 1625 C289.25031441 1614.95129277 288.45408702 1603.58815111 288.36890984 1593.1311543 C288.35098051 1588.67899859 288.43075393 1584.22840156 288.49734497 1579.77685547 C288.61136292 1571.0627064 288.63230524 1562.35073673 288.61758026 1553.63594453 C288.60651105 1546.54891476 288.6249784 1539.4625546 288.66425323 1532.37562943 C288.66974543 1531.36582168 288.67523762 1530.35601393 288.68089624 1529.31560595 C288.692055 1527.26393093 288.7032237 1525.21225597 288.71440223 1523.16058107 C288.81456235 1503.92849153 288.80283265 1484.69764741 288.75795487 1465.46543224 C288.72057198 1447.89262176 288.82797178 1430.32417182 289.00342914 1412.75231032 C289.18238988 1394.68940633 289.26064981 1376.62857675 289.23178506 1358.56477416 C289.21742633 1348.43088581 289.24275663 1338.30087905 289.37432098 1328.16773605 C289.48534499 1319.53742724 289.50112087 1310.91323705 289.39626154 1302.28274648 C289.34538031 1297.88182557 289.33676001 1293.49218497 289.4473381 1289.09210587 C290.37873286 1271.42185366 290.37873286 1271.42185366 283.33974171 1256.04468584 C277.10315857 1250.74469431 269.74132296 1247.41637394 262.21901369 1244.34569287 C257.87085241 1242.52796539 253.8723273 1240.25112502 249.8125 1237.875 C248.39402662 1237.0912402 246.97368251 1236.31084831 245.55078125 1235.53515625 C239.11504238 1231.97754732 232.78545649 1228.23637818 226.44018555 1224.52075195 C219.01717615 1220.1743654 211.57780922 1215.85758611 204.125 1211.5625 C203.04686035 1210.94101074 201.9687207 1210.31952148 200.85791016 1209.67919922 C197.57221441 1207.78565623 194.28617126 1205.89271763 191 1204 C178.35696891 1196.71806429 165.71875464 1189.42940758 153.125 1182.0625 C143.30861542 1176.32246579 133.44534506 1170.66676663 123.56738281 1165.03369141 C112.42847496 1158.68076105 101.3206742 1152.27453369 90.21777344 1145.85888672 C85.89752357 1143.36310656 81.57577013 1140.86993703 77.25390625 1138.37695312 C74.00503504 1136.50290437 70.75642368 1134.62840572 67.5078125 1132.75390625 C63.14934612 1130.23930564 58.78987809 1127.72645339 54.4296875 1125.21484375 C42.954329 1118.60285147 31.49556945 1111.96398098 20.06054688 1105.2824707 C10.34896016 1099.61176945 0.61183264 1093.98579448 -9.13671875 1088.37890625 C-12.64788332 1086.35926954 -16.15226222 1084.32946977 -19.64453125 1082.27734375 C-20.30179199 1081.89368652 -20.95905273 1081.5100293 -21.63623047 1081.11474609 C-23.27943297 1080.15483789 -24.91920106 1079.1890567 -26.55859375 1078.22265625 C-31.64219773 1075.67678738 -34.69171298 1078.39012288 -39.0625 1081.0625 Z M421 1338 C420.99944384 1338.70976672 420.99888767 1339.41953343 420.99831466 1340.15080823 C420.93768374 1417.43731054 420.87459332 1494.7238107 420.79867554 1572.01029968 C420.79754191 1573.16507112 420.79640829 1574.31984256 420.79524031 1575.50960707 C420.77058795 1600.60687271 420.74549503 1625.7041379 420.71994839 1650.80140265 C420.70742271 1663.10938228 420.69499437 1675.41736201 420.68261719 1687.7253418 C420.68138386 1688.95012323 420.68015054 1690.17490465 420.67887984 1691.43680067 C420.63896145 1731.12397681 420.60546839 1770.8111552 420.57531309 1810.49833985 C420.54428647 1851.28755265 420.50676615 1892.07675445 420.46109388 1932.86595361 C420.45464363 1938.62927059 420.4482675 1944.39258765 420.44193649 1950.15590477 C420.44068819 1951.29019028 420.43943988 1952.42447578 420.43815375 1953.59313358 C420.41826302 1971.84014378 420.40520252 1990.08715277 420.39470672 2008.33417053 C420.38400464 2026.68574862 420.36608181 2045.03730848 420.34083296 2063.38887242 C420.32605684 2074.28718206 420.31677255 2085.18546379 420.31543317 2096.08378354 C420.31399081 2103.37255305 420.30530429 2110.66129119 420.29084408 2117.95004643 C420.28281987 2122.09748509 420.27783439 2126.24486221 420.28172119 2130.39230827 C420.30969508 2165.17269656 418.42643702 2195.51973694 395 2223 C394.46246094 2223.65097656 393.92492188 2224.30195313 393.37109375 2224.97265625 C381.8471606 2237.70013333 364.09094929 2245.73517835 349.41113281 2254.06054688 C343.9250088 2257.17976883 338.46351061 2260.34139502 333 2263.5 C330.83345808 2264.75021619 328.66679121 2266.00021591 326.5 2267.25 C324.89125 2268.178125 324.89125 2268.178125 323.25 2269.125 C183.50000003 2349.74999998 183.50000003 2349.74999998 180.24829102 2351.62597656 C178.08731012 2352.87270256 175.92634002 2354.11944727 173.76538086 2355.36621094 C168.26181149 2358.54145883 162.75803968 2361.71635495 157.25390625 2364.890625 C135.25154179 2377.56347933 135.25154179 2377.56347933 113.3046875 2390.33203125 C102.29998131 2396.77300262 91.25947579 2403.13778554 80.14672852 2409.390625 C73.95113023 2412.88200244 67.80077158 2416.4393785 61.68164062 2420.06274414 C51.96842173 2425.80745189 42.17420157 2431.41306503 32.39501953 2437.04443359 C26.92830017 2440.19332056 21.46427167 2443.34686818 16 2446.5 C13.83984911 2447.74610303 11.67969284 2448.99219677 9.51953125 2450.23828125 C5.12040925 2452.77615993 0.72205679 2455.31536583 -3.67578125 2457.85546875 C-13.79195641 2463.69705747 -23.91317028 2469.52867485 -34.0625 2475.3125 C-40.81237165 2479.16036883 -47.52870553 2483.05891376 -54.21728516 2487.01220703 C-63.96850976 2492.76639948 -73.79324208 2498.39431737 -83.60498047 2504.04443359 C-89.07169983 2507.19332056 -94.53572833 2510.34686818 -100 2513.5 C-102.16015089 2514.74610303 -104.32030716 2515.99219677 -106.48046875 2517.23828125 C-110.87959075 2519.77615993 -115.27794321 2522.31536583 -119.67578125 2524.85546875 C-129.64647883 2530.61308222 -139.62139741 2536.36221893 -149.625 2542.0625 C-158.01276851 2546.84383259 -166.35782406 2551.69576337 -174.69213867 2556.56958008 C-182.25772317 2560.99138827 -189.8434794 2565.3772328 -197.4375 2569.75 C-207.32496636 2575.44427542 -217.18125467 2581.18806857 -227 2587 C-218.58108898 2595.59615125 -208.75357709 2602.513084 -199.02392578 2609.53808594 C-197.68186506 2610.50747793 -196.34167016 2611.47945861 -195.00341797 2612.45410156 C-176.85047184 2625.65704706 -157.63070308 2637.14109425 -138 2648 C-137.18692383 2648.45052734 -136.37384766 2648.90105469 -135.53613281 2649.36523438 C-57.04485708 2692.49922866 35.44236158 2715.82265101 125 2714 C126.51134521 2713.97317139 126.51134521 2713.97317139 128.05322266 2713.94580078 C181.5553498 2712.89433163 233.90416651 2705.00228902 285 2689 C286.88114502 2688.41412109 286.88114502 2688.41412109 288.80029297 2687.81640625 C316.51260919 2679.10386256 343.048822 2668.02860252 369 2655 C369.98726074 2654.505 370.97452148 2654.01 371.99169922 2653.5 C410.51959464 2634.06204718 445.19025498 2609.57308069 478.45996094 2582.23291016 C479.75350467 2581.19733694 481.09476855 2580.22176996 482.4453125 2579.26171875 C482.95835937 2578.84535156 483.47140625 2578.42898438 484 2578 C484 2577.34 484 2576.68 484 2576 C484.59296875 2575.73574219 485.1859375 2575.47148437 485.796875 2575.19921875 C488.08029054 2573.95629575 489.47426723 2572.69598354 491.25 2570.8125 C493.60696536 2568.32135097 496.07626251 2566.04893271 498.671875 2563.8125 C503.30357583 2559.78947276 507.66136024 2555.52238011 512 2551.1875 C512.77472656 2550.42501953 513.54945313 2549.66253906 514.34765625 2548.87695312 C515.07855469 2548.14798828 515.80945312 2547.41902344 516.5625 2546.66796875 C517.22378906 2546.01078857 517.88507812 2545.3536084 518.56640625 2544.67651367 C520.21663256 2543.11430544 520.21663256 2543.11430544 520 2541 C520.66 2541 521.32 2541 522 2541 C523.50273886 2539.55316948 523.50273886 2539.55316948 525.0625 2537.625 C527.77923786 2534.42453655 530.54335219 2531.28693937 533.375 2528.1875 C538.10576093 2522.93819023 542.56997052 2517.50376055 547 2512 C547.92538408 2510.86686303 548.85118393 2509.73406551 549.77734375 2508.6015625 C575.94743322 2476.44513581 597.39593419 2440.97852267 616 2404 C616.51578613 2402.97487305 617.03157227 2401.94974609 617.56298828 2400.89355469 C660.82604413 2313.82783519 671.31311082 2219.81308565 671.27739408 2116.82191144 C671.27295437 2108.42824123 671.28035885 2100.03459022 671.28786864 2091.64092366 C671.30299569 2074.26047299 671.30482617 2056.88003705 671.30234561 2039.49958117 C671.3005055 2026.08944004 671.3022875 2012.67930367 671.30657005 1999.26916313 C671.30717247 1997.33559876 671.30777367 1995.40203439 671.30837366 1993.46847002 C671.30928098 1990.55428064 671.31018965 1987.64009125 671.31110601 1984.72590187 C671.31951587 1957.69244858 671.32388407 1930.65899706 671.31969929 1903.62554264 C671.31954291 1902.609606 671.31938654 1901.59366937 671.31922542 1900.54694677 C671.31841975 1895.39880425 671.31757397 1890.25066173 671.31671212 1885.10251922 C671.31654103 1884.08022519 671.31636994 1883.05793117 671.31619367 1882.00465853 C671.31584702 1879.93735326 671.31549849 1877.87004798 671.31514808 1875.80274271 C671.30977727 1843.55313605 671.31776787 1811.30355666 671.33618164 1779.05395508 C671.35687982 1742.76167163 671.36762996 1706.46940506 671.36360615 1670.17711538 C671.36321082 1666.31225964 671.36284928 1662.44740389 671.36250877 1658.58254814 C671.36241804 1657.63101914 671.36232731 1656.67949013 671.36223383 1655.69912692 C671.36106723 1641.32737066 671.36771975 1626.95563146 671.37832069 1612.58387947 C671.39034409 1596.26775268 671.39196337 1579.95166359 671.37953053 1563.63553626 C671.37288312 1554.50261284 671.37457663 1545.3697795 671.38811904 1536.23686321 C671.39632801 1530.14400438 671.39371266 1524.05121343 671.38214377 1517.95836019 C671.37585285 1514.48308423 671.37437476 1511.0079848 671.38600711 1507.53271867 C671.39601576 1503.79561165 671.38777471 1500.05898732 671.37473011 1496.32190037 C671.38569413 1494.69172817 671.38569413 1494.69172817 671.39687964 1493.02862319 C671.41859494 1485.99310849 671.41859494 1485.99310849 668 1480 C665.28659865 1477.95863029 665.28659865 1477.95863029 661.9375 1476.125 C661.29611084 1475.75334717 660.65472168 1475.38169434 659.99389648 1474.9987793 C658.51564034 1474.14434012 657.03401473 1473.29571471 655.54980469 1472.45166016 C652.71599617 1470.83831034 649.89274611 1469.20738433 647.0703125 1467.57421875 C642.63212936 1465.00738311 638.19032005 1462.44698226 633.74609375 1459.890625 C627.52357286 1456.30750411 621.32198488 1452.68954812 615.125 1449.0625 C606.48731578 1444.01139003 597.81680134 1439.01975518 589.125 1434.0625 C570.75351804 1423.58421049 552.43527399 1413.01675205 534.17871094 1402.33935547 C526.47975166 1397.84472573 518.74531754 1393.41400101 511 1389 C501.280267 1383.46079375 491.59350314 1377.86853907 481.9375 1372.21875 C473.56657929 1367.32276057 465.16933582 1362.47340134 456.76318359 1357.63818359 C451.19204152 1354.43050533 445.63287655 1351.20406247 440.09375 1347.94140625 C438.98644531 1347.29042969 437.87914062 1346.63945313 436.73828125 1345.96875 C434.61890626 1344.72115652 432.50162887 1343.46999116 430.38671875 1342.21484375 C429.44441406 1341.66054687 428.50210938 1341.10625 427.53125 1340.53515625 C426.70173828 1340.044104 425.87222656 1339.55305176 425.01757812 1339.04711914 C423.08299336 1337.84644914 423.08299336 1337.84644914 421 1338 Z M278.59375 1783.97265625 C276.90934814 1784.93957397 276.90934814 1784.93957397 275.19091797 1785.92602539 C273.96055897 1786.638092 272.73025442 1787.35025272 271.5 1788.0625 C270.22954271 1788.793909 268.95886921 1789.52494258 267.68798828 1790.25561523 C264.41806815 1792.13695711 261.15108313 1794.02333366 257.8848877 1795.91113281 C255.01596273 1797.5684614 252.14463009 1799.22160385 249.2734375 1800.875 C243.92202972 1803.95800864 238.57392386 1807.0466985 233.2265625 1810.13671875 C229.96475993 1812.0203505 226.70138156 1813.90122321 223.4375 1815.78125 C212.94261084 1821.82747312 202.45769461 1827.88963481 192 1834 C180.45270484 1840.74701194 168.87097973 1847.43339318 157.28222656 1854.10888672 C151.85340058 1857.23680148 146.42680719 1860.36858448 141 1863.5 C138.83334417 1864.75001879 136.6666775 1866.00001878 134.5 1867.25 C133.4275 1867.86875 132.355 1868.4875 131.25 1869.125 C128 1871 124.75 1872.875 121.5 1874.75 C120.42709717 1875.3689917 119.35419434 1875.9879834 118.2487793 1876.62573242 C116.08621417 1877.8733474 113.92361661 1879.12090616 111.76098633 1880.3684082 C106.28129629 1883.52943449 100.80220642 1886.69149309 95.32421875 1889.85546875 C85.35352117 1895.61308222 75.37860259 1901.36221893 65.375 1907.0625 C56.98438586 1911.84545471 48.63710698 1916.70004441 40.29907227 1921.57397461 C24.89547261 1930.57389988 9.4366213 1939.47817282 -6.0625 1948.3125 C-12.81233411 1952.16043593 -19.52870446 1956.05891313 -26.21728516 1960.01220703 C-35.96850976 1965.76639948 -45.79324208 1971.39431737 -55.60498047 1977.04443359 C-61.0716998 1980.19332054 -66.53574887 1983.34683264 -72 1986.5 C-74.16665311 1987.7500235 -76.33331979 1989.00002347 -78.5 1990.25 C-79.5725 1990.86875 -80.645 1991.4875 -81.75 1992.125 C-91.5 1997.75 -91.5 1997.75 -94.75048828 1999.62524414 C-96.91557071 2000.87435518 -99.08060982 2002.12354129 -101.24560547 2003.37280273 C-106.68615706 2006.51202309 -112.12747216 2009.64990563 -117.5703125 2012.78515625 C-129.1714763 2019.46973907 -140.75416625 2026.18411286 -152.31298828 2032.94165039 C-159.5425023 2037.16294631 -166.80365998 2041.32590523 -174.07861328 2045.46826172 C-180.63887517 2049.20905403 -187.16804667 2053.00108648 -193.6875 2056.8125 C-205.32054019 2063.61331092 -216.98855106 2070.35224557 -228.66503906 2077.078125 C-232.08753545 2079.05044502 -235.50884441 2081.02481457 -238.9296875 2083 C-257.7953453 2093.89187323 -257.7953453 2093.89187323 -265.125 2098.0625 C-271.15147292 2101.49670332 -277.1377735 2104.99790105 -283.125 2108.5 C-292.05275788 2113.72092343 -301.01421683 2118.87988815 -310 2124 C-319.7212591 2129.53983473 -329.40894893 2135.13374946 -339.06689453 2140.78344727 C-349.59367451 2146.93932133 -360.15964934 2153.02663887 -370.7265625 2159.11328125 C-373.9647516 2160.9796838 -377.20139438 2162.84873763 -380.4375 2164.71875 C-385.81879636 2167.82835159 -391.20334355 2170.93226558 -396.58935547 2174.03369141 C-398.95675521 2175.39854735 -401.32308435 2176.7651143 -403.68798828 2178.13427734 C-406.82701532 2179.95157539 -409.96891585 2181.76381676 -413.11260986 2183.57302856 C-414.30678893 2184.26142193 -415.49998677 2184.95152096 -416.69207764 2185.64352417 C-426.215285 2191.16954384 -435.69863112 2196.36713609 -446.375 2199.25 C-447.51710938 2199.56453125 -448.65921875 2199.8790625 -449.8359375 2200.203125 C-466.49916287 2204.39978917 -487.86290949 2204.0218455 -504 2198 C-505.17433594 2197.58363281 -506.34867188 2197.16726563 -507.55859375 2196.73828125 C-518.43229388 2192.570771 -528.25696708 2186.26335889 -538.19178772 2180.2713623 C-545.42450606 2175.9104871 -552.73887476 2171.72248696 -560.125 2167.625 C-567.60968454 2163.46568688 -575.05267868 2159.25818051 -582.41625977 2154.88818359 C-588.76772893 2151.12204677 -595.16301074 2147.43384574 -601.5625 2143.75 C-610.16215623 2138.79841767 -618.7464325 2133.82196134 -627.3125 2128.8125 C-635.54141467 2124.0015231 -643.79923909 2119.24533865 -652.08300781 2114.52954102 C-658.60180074 2110.81299675 -665.08640635 2107.04037891 -671.5625 2103.25 C-680.3040436 2098.13575006 -689.07722507 2093.07925133 -697.875 2088.0625 C-715.20838233 2078.17815725 -732.48712425 2068.19971893 -749.75146484 2058.1953125 C-754.19973369 2055.61835828 -758.65124191 2053.04711269 -763.10546875 2050.48046875 C-774.74209403 2043.77509044 -786.36441418 2037.04686345 -797.9597168 2030.27026367 C-806.38598802 2025.34935444 -814.8375773 2020.47308094 -823.29345703 2015.60327148 C-830.50251995 2011.44874148 -837.69344741 2007.26437068 -844.875 2003.0625 C-854.69132406 1997.32236348 -864.55465595 1991.66676606 -874.43261719 1986.03369141 C-885.56868885 1979.68237863 -896.67347797 1973.27749144 -907.7734375 1966.86328125 C-911.03524007 1964.9796495 -914.29861844 1963.09877679 -917.5625 1961.21875 C-929.04959095 1954.60090832 -940.51945745 1947.95512768 -951.96582031 1941.26708984 C-963.61659185 1934.46412377 -975.30903744 1927.73357814 -987 1921 C-999.64303049 1913.71806464 -1012.28128884 1906.42948122 -1024.875 1899.0625 C-1033.65760017 1893.92634834 -1042.4748685 1888.85312737 -1051.3125 1883.8125 C-1052.20887177 1883.30123062 -1052.20887177 1883.30123062 -1053.12335205 1882.77963257 C-1054.01289581 1882.27226059 -1054.01289581 1882.27226059 -1054.92041016 1881.75463867 C-1064.63812209 1876.21153925 -1074.33056561 1870.626846 -1084 1865 C-1084.98049316 1864.42975098 -1085.96098633 1863.85950195 -1086.97119141 1863.27197266 C-1090.16893667 1861.41158262 -1093.36588394 1859.54982955 -1096.5625 1857.6875 C-1097.55024414 1857.11241699 -1098.53798828 1856.53733398 -1099.55566406 1855.94482422 C-1100.50795898 1855.38939941 -1101.46025391 1854.83397461 -1102.44140625 1854.26171875 C-1103.3658252 1853.72337402 -1104.29024414 1853.1850293 -1105.24267578 1852.63037109 C-1107.11700398 1851.52210443 -1108.97971072 1850.39399511 -1110.83154297 1849.24853516 C-1111.72115723 1848.69858887 -1112.61077148 1848.14864258 -1113.52734375 1847.58203125 C-1114.3174585 1847.08550049 -1115.10757324 1846.58896973 -1115.92163086 1846.07739258 C-1118.05373107 1844.7698886 -1118.05373107 1844.7698886 -1121 1845 C-1121.68511535 1849.81029278 -1122.35979981 1854.62191635 -1123.02636719 1859.43481445 C-1123.25260478 1861.05887718 -1123.48130024 1862.68260013 -1123.71289062 1864.3059082 C-1127.13322363 1888.31574584 -1128.38441482 1912.12951581 -1128.3125 1936.375 C-1128.31034485 1937.68971283 -1128.3081897 1939.00442566 -1128.30596924 1940.35897827 C-1128.26007674 1961.0487789 -1127.69272969 1981.47803752 -1125 2002 C-1124.90289734 2002.75359802 -1124.80579468 2003.50719604 -1124.70574951 2004.28363037 C-1120.20604106 2038.99018594 -1112.76624581 2072.69557487 -1102 2106 C-1101.42427246 2107.79679199 -1101.42427246 2107.79679199 -1100.83691406 2109.62988281 C-1094.695662 2128.62634526 -1087.26030973 2146.85036575 -1079 2165 C-1078.54592773 2166.00063477 -1078.09185547 2167.00126953 -1077.62402344 2168.03222656 C-1057.8905483 2211.22445001 -1031.45545314 2251.81014533 -1000.63671875 2287.89453125 C-998.11240572 2290.8548032 -995.64437606 2293.85843358 -993.1875 2296.875 C-991.79175813 2298.58340806 -990.39593263 2300.29174781 -989 2302 C-988.39929688 2302.73863281 -987.79859375 2303.47726562 -987.1796875 2304.23828125 C-985.83116478 2305.86367458 -984.42239062 2307.43883956 -983 2309 C-982.34 2309 -981.68 2309 -981 2309 C-980.78102051 2309.54422607 -980.56204102 2310.08845215 -980.33642578 2310.64916992 C-978.55934561 2313.7751299 -976.15642685 2316.10971815 -973.6171875 2318.61328125 C-972.81754074 2319.41224068 -972.81754074 2319.41224068 -972.0017395 2320.2273407 C-970.87266483 2321.35339921 -969.74116559 2322.4770312 -968.60742188 2323.59838867 C-966.89664129 2325.29108744 -965.19382508 2326.99147489 -963.4921875 2328.69335938 C-957.82840743 2334.33887354 -952.10318057 2339.82651539 -946 2345 C-944.80809611 2346.04482549 -943.61798302 2347.09169747 -942.4296875 2348.140625 C-934.69351681 2354.92188567 -926.81358114 2361.44483663 -918.66015625 2367.71777344 C-917.07804648 2368.93972057 -915.50744705 2370.17652771 -913.9375 2371.4140625 C-897.72937154 2384.10767331 -880.65165277 2395.42474126 -863 2406 C-862.22897949 2406.46470703 -861.45795898 2406.92941406 -860.66357422 2407.40820312 C-827.06475841 2427.57764988 -791.2948253 2444.32300312 -754 2456.375 C-753.12839233 2456.65724426 -752.25678467 2456.93948853 -751.35876465 2457.23028564 C-712.79703492 2469.6711657 -673.37033208 2478.26780945 -633 2482 C-632.07421143 2482.08613556 -631.14842285 2482.17227112 -630.19458008 2482.26101685 C-613.69625833 2483.75673474 -597.312528 2484.36704787 -580.75 2484.3125 C-579.58700378 2484.31067719 -578.42400757 2484.30885437 -577.22576904 2484.30697632 C-503.04508535 2484.1128324 -428.90664599 2469.20015787 -361 2439 C-359.49904785 2438.33701904 -359.49904785 2438.33701904 -357.96777344 2437.66064453 C-329.70574076 2425.12298374 -302.94566223 2409.87216652 -276.25634766 2394.31347656 C-273.22217443 2392.54720823 -270.18231765 2390.79084542 -267.14257812 2389.03417969 C-260.14760694 2384.99140296 -253.16387271 2380.92990581 -246.1887207 2376.85302734 C-236.84141669 2371.39019145 -227.47422347 2365.96615844 -218.06811523 2360.60522461 C-202.66266865 2351.82254527 -187.31152971 2342.94532326 -172 2334 C-153.93679723 2323.44815455 -135.80320747 2313.0204519 -117.63119507 2302.65740967 C-110.08173828 2298.3508396 -102.55842352 2294.00491333 -95.08007812 2289.57592773 C-89.72983801 2286.41292176 -84.33873516 2283.32498785 -78.9375 2280.25 C-71.26338811 2275.88095242 -63.62220376 2271.45897391 -56 2267 C-48.52259244 2262.62618537 -41.0283039 2258.28562855 -33.5 2254 C-26.07768069 2249.77384092 -18.68604607 2245.49818847 -11.3125 2241.1875 C5.74850013 2231.21439774 22.87030111 2221.34774959 40.03466797 2211.55371094 C56.39540279 2202.2127102 72.69822954 2192.7720548 88.96459961 2183.26782227 C99.51799059 2177.10555474 110.1061994 2171.00405835 120.69580078 2164.90429688 C124.02614252 2162.98493338 127.35509148 2161.06317647 130.68359375 2159.140625 C141.61358123 2152.82810599 152.55300302 2146.53320352 163.51635742 2140.27880859 C171.59380773 2135.6677913 179.64322156 2131.00905244 187.68798828 2126.34130859 C191.47839558 2124.142312 195.27032972 2121.94595458 199.0625 2119.75 C199.83198975 2119.30430664 200.60147949 2118.85861328 201.39428711 2118.39941406 C205.9710093 2115.7497084 210.55069344 2113.10520644 215.1328125 2110.46484375 C226.79076963 2103.74710066 238.44391399 2097.02184667 250.05419922 2090.22192383 C255.26431414 2087.17120168 260.48674353 2084.14499382 265.73046875 2081.15234375 C266.83181152 2080.52013916 267.9331543 2079.88793457 269.06787109 2079.23657227 C271.182767 2078.02317262 273.30142319 2076.81629642 275.42431641 2075.61694336 C276.3735498 2075.07046143 277.3227832 2074.52397949 278.30078125 2073.9609375 C279.13778564 2073.48446777 279.97479004 2073.00799805 280.8371582 2072.51708984 C283.2146008 2070.84947179 284.46020128 2069.45754732 286 2067 C286.44225999 2064.63020812 286.44225999 2064.63020812 286.36914349 2062.04124069 C286.37511663 2061.03702536 286.38108978 2060.03281003 286.38724393 2058.99816394 C286.3785054 2057.89700409 286.36976688 2056.79584424 286.36076355 2055.66131592 C286.36460846 2053.90434541 286.36460846 2053.90434541 286.36853105 2052.11188054 C286.372622 2048.85993453 286.36323171 2045.60834616 286.34819686 2042.35644245 C286.33525323 2038.85000426 286.33962477 2035.34358304 286.34190369 2031.83712769 C286.34347748 2025.76172678 286.33405721 2019.68642245 286.31719017 2013.61104584 C286.29281911 2004.82706459 286.28499684 1996.0431301 286.2812262 1987.25911871 C286.27465874 1973.00800578 286.25468958 1958.75694434 286.22631836 1944.50585938 C286.19878541 1930.66146096 286.17754809 1916.81707652 286.16479492 1902.97265625 C286.16400675 1902.11942641 286.16321858 1901.26619657 286.16240653 1900.38711128 C286.15849144 1896.10674952 286.15470031 1891.82638767 286.15097082 1887.54602575 C286.11986573 1852.03064713 286.06702192 1816.51532831 286 1781 C283.00360763 1781 281.18000635 1782.48163015 278.59375 1783.97265625 Z " fill="#000000" transform="translate(1523,58)"/>
</svg>
